M48
; DRILL file {KiCad (5.1.4)-1} date 11/5/2020 6:39:36 PM
; FORMAT={-:-/ absolute / inch / decimal}
; #@! TF.CreationDate,2020-11-05T18:39:36-08:00
; #@! TF.GenerationSoftware,Kicad,Pcbnew,(5.1.4)-1
; #@! TF.FileFunction,Plated,1,2,PTH
FMAT,2
INCH
T1C0.0157
T2C0.0906
%
G90
G05
T1
X4.2222Y-2.0312
X4.2395Y-1.9895
X4.2395Y-2.073
X4.2812Y-1.9722
X4.2812Y-2.0903
X4.323Y-1.9895
X4.323Y-2.073
X4.3403Y-2.0312
X7.2222Y-2.0312
X7.2395Y-1.9895
X7.2395Y-2.073
X7.2812Y-1.9722
X7.2812Y-2.0903
X7.323Y-1.9895
X7.323Y-2.073
X7.3403Y-2.0312
X1.2222Y-2.0312
X1.2395Y-1.9895
X1.2395Y-2.073
X1.2812Y-1.9722
X1.2812Y-2.0903
X1.323Y-1.9895
X1.323Y-2.073
X1.3403Y-2.0312
X1.2222Y-1.2812
X1.2395Y-1.2395
X1.2395Y-1.323
X1.2812Y-1.2222
X1.2812Y-1.3403
X1.323Y-1.2395
X1.323Y-1.323
X1.3403Y-1.2812
X4.2222Y-1.2812
X4.2395Y-1.2395
X4.2395Y-1.323
X4.2812Y-1.2222
X4.2812Y-1.3403
X4.323Y-1.2395
X4.323Y-1.323
X4.3403Y-1.2812
X7.2222Y-1.2812
X7.2395Y-1.2395
X7.2395Y-1.323
X7.2812Y-1.2222
X7.2812Y-1.3403
X7.323Y-1.2395
X7.323Y-1.323
X7.3403Y-1.2812
T2
X4.2812Y-2.0312
X7.2812Y-2.0312
X1.2812Y-2.0312
X1.2812Y-1.2812
X4.2812Y-1.2812
X7.2812Y-1.2812
T0
M30
