G04 #@! TF.GenerationSoftware,KiCad,Pcbnew,(5.1.4)-1*
G04 #@! TF.CreationDate,2020-11-05T18:38:46-08:00*
G04 #@! TF.ProjectId,plate,706c6174-652e-46b6-9963-61645f706362,rev?*
G04 #@! TF.SameCoordinates,Original*
G04 #@! TF.FileFunction,Soldermask,Top*
G04 #@! TF.FilePolarity,Negative*
%FSLAX46Y46*%
G04 Gerber Fmt 4.6, Leading zero omitted, Abs format (unit mm)*
G04 Created by KiCad (PCBNEW (5.1.4)-1) date 2020-11-05 18:38:46*
%MOMM*%
%LPD*%
G04 APERTURE LIST*
%ADD10C,0.100000*%
G04 APERTURE END LIST*
D10*
G36*
X109342004Y-49621568D02*
G01*
X109715261Y-49776176D01*
X109715263Y-49776177D01*
X110051186Y-50000634D01*
X110336866Y-50286314D01*
X110560863Y-50621548D01*
X110561324Y-50622239D01*
X110715932Y-50995496D01*
X110794750Y-51391743D01*
X110794750Y-51795757D01*
X110715932Y-52192004D01*
X110604148Y-52461874D01*
X110561323Y-52565263D01*
X110336866Y-52901186D01*
X110051186Y-53186866D01*
X109715263Y-53411323D01*
X109715262Y-53411324D01*
X109715261Y-53411324D01*
X109342004Y-53565932D01*
X108945757Y-53644750D01*
X108541743Y-53644750D01*
X108145496Y-53565932D01*
X107772239Y-53411324D01*
X107772238Y-53411324D01*
X107772237Y-53411323D01*
X107436314Y-53186866D01*
X107150634Y-52901186D01*
X106926177Y-52565263D01*
X106883352Y-52461874D01*
X106771568Y-52192004D01*
X106692750Y-51795757D01*
X106692750Y-51391743D01*
X106771568Y-50995496D01*
X106926176Y-50622239D01*
X106926638Y-50621548D01*
X107150634Y-50286314D01*
X107436314Y-50000634D01*
X107772237Y-49776177D01*
X107772239Y-49776176D01*
X108145496Y-49621568D01*
X108541743Y-49542750D01*
X108945757Y-49542750D01*
X109342004Y-49621568D01*
X109342004Y-49621568D01*
G37*
G36*
X33142004Y-49621568D02*
G01*
X33515261Y-49776176D01*
X33515263Y-49776177D01*
X33851186Y-50000634D01*
X34136866Y-50286314D01*
X34360863Y-50621548D01*
X34361324Y-50622239D01*
X34515932Y-50995496D01*
X34594750Y-51391743D01*
X34594750Y-51795757D01*
X34515932Y-52192004D01*
X34404148Y-52461874D01*
X34361323Y-52565263D01*
X34136866Y-52901186D01*
X33851186Y-53186866D01*
X33515263Y-53411323D01*
X33515262Y-53411324D01*
X33515261Y-53411324D01*
X33142004Y-53565932D01*
X32745757Y-53644750D01*
X32341743Y-53644750D01*
X31945496Y-53565932D01*
X31572239Y-53411324D01*
X31572238Y-53411324D01*
X31572237Y-53411323D01*
X31236314Y-53186866D01*
X30950634Y-52901186D01*
X30726177Y-52565263D01*
X30683352Y-52461874D01*
X30571568Y-52192004D01*
X30492750Y-51795757D01*
X30492750Y-51391743D01*
X30571568Y-50995496D01*
X30726176Y-50622239D01*
X30726638Y-50621548D01*
X30950634Y-50286314D01*
X31236314Y-50000634D01*
X31572237Y-49776177D01*
X31572239Y-49776176D01*
X31945496Y-49621568D01*
X32341743Y-49542750D01*
X32745757Y-49542750D01*
X33142004Y-49621568D01*
X33142004Y-49621568D01*
G37*
G36*
X185542004Y-49621568D02*
G01*
X185915261Y-49776176D01*
X185915263Y-49776177D01*
X186251186Y-50000634D01*
X186536866Y-50286314D01*
X186760863Y-50621548D01*
X186761324Y-50622239D01*
X186915932Y-50995496D01*
X186994750Y-51391743D01*
X186994750Y-51795757D01*
X186915932Y-52192004D01*
X186804148Y-52461874D01*
X186761323Y-52565263D01*
X186536866Y-52901186D01*
X186251186Y-53186866D01*
X185915263Y-53411323D01*
X185915262Y-53411324D01*
X185915261Y-53411324D01*
X185542004Y-53565932D01*
X185145757Y-53644750D01*
X184741743Y-53644750D01*
X184345496Y-53565932D01*
X183972239Y-53411324D01*
X183972238Y-53411324D01*
X183972237Y-53411323D01*
X183636314Y-53186866D01*
X183350634Y-52901186D01*
X183126177Y-52565263D01*
X183083352Y-52461874D01*
X182971568Y-52192004D01*
X182892750Y-51795757D01*
X182892750Y-51391743D01*
X182971568Y-50995496D01*
X183126176Y-50622239D01*
X183126638Y-50621548D01*
X183350634Y-50286314D01*
X183636314Y-50000634D01*
X183972237Y-49776177D01*
X183972239Y-49776176D01*
X184345496Y-49621568D01*
X184741743Y-49542750D01*
X185145757Y-49542750D01*
X185542004Y-49621568D01*
X185542004Y-49621568D01*
G37*
G36*
X109342004Y-30571568D02*
G01*
X109715261Y-30726176D01*
X109715263Y-30726177D01*
X110051186Y-30950634D01*
X110336866Y-31236314D01*
X110560863Y-31571548D01*
X110561324Y-31572239D01*
X110715932Y-31945496D01*
X110794750Y-32341743D01*
X110794750Y-32745757D01*
X110715932Y-33142004D01*
X110604148Y-33411874D01*
X110561323Y-33515263D01*
X110336866Y-33851186D01*
X110051186Y-34136866D01*
X109715263Y-34361323D01*
X109715262Y-34361324D01*
X109715261Y-34361324D01*
X109342004Y-34515932D01*
X108945757Y-34594750D01*
X108541743Y-34594750D01*
X108145496Y-34515932D01*
X107772239Y-34361324D01*
X107772238Y-34361324D01*
X107772237Y-34361323D01*
X107436314Y-34136866D01*
X107150634Y-33851186D01*
X106926177Y-33515263D01*
X106883352Y-33411874D01*
X106771568Y-33142004D01*
X106692750Y-32745757D01*
X106692750Y-32341743D01*
X106771568Y-31945496D01*
X106926176Y-31572239D01*
X106926638Y-31571548D01*
X107150634Y-31236314D01*
X107436314Y-30950634D01*
X107772237Y-30726177D01*
X107772239Y-30726176D01*
X108145496Y-30571568D01*
X108541743Y-30492750D01*
X108945757Y-30492750D01*
X109342004Y-30571568D01*
X109342004Y-30571568D01*
G37*
G36*
X33142004Y-30571568D02*
G01*
X33515261Y-30726176D01*
X33515263Y-30726177D01*
X33851186Y-30950634D01*
X34136866Y-31236314D01*
X34360863Y-31571548D01*
X34361324Y-31572239D01*
X34515932Y-31945496D01*
X34594750Y-32341743D01*
X34594750Y-32745757D01*
X34515932Y-33142004D01*
X34404148Y-33411874D01*
X34361323Y-33515263D01*
X34136866Y-33851186D01*
X33851186Y-34136866D01*
X33515263Y-34361323D01*
X33515262Y-34361324D01*
X33515261Y-34361324D01*
X33142004Y-34515932D01*
X32745757Y-34594750D01*
X32341743Y-34594750D01*
X31945496Y-34515932D01*
X31572239Y-34361324D01*
X31572238Y-34361324D01*
X31572237Y-34361323D01*
X31236314Y-34136866D01*
X30950634Y-33851186D01*
X30726177Y-33515263D01*
X30683352Y-33411874D01*
X30571568Y-33142004D01*
X30492750Y-32745757D01*
X30492750Y-32341743D01*
X30571568Y-31945496D01*
X30726176Y-31572239D01*
X30726638Y-31571548D01*
X30950634Y-31236314D01*
X31236314Y-30950634D01*
X31572237Y-30726177D01*
X31572239Y-30726176D01*
X31945496Y-30571568D01*
X32341743Y-30492750D01*
X32745757Y-30492750D01*
X33142004Y-30571568D01*
X33142004Y-30571568D01*
G37*
G36*
X185542004Y-30571568D02*
G01*
X185915261Y-30726176D01*
X185915263Y-30726177D01*
X186251186Y-30950634D01*
X186536866Y-31236314D01*
X186760863Y-31571548D01*
X186761324Y-31572239D01*
X186915932Y-31945496D01*
X186994750Y-32341743D01*
X186994750Y-32745757D01*
X186915932Y-33142004D01*
X186804148Y-33411874D01*
X186761323Y-33515263D01*
X186536866Y-33851186D01*
X186251186Y-34136866D01*
X185915263Y-34361323D01*
X185915262Y-34361324D01*
X185915261Y-34361324D01*
X185542004Y-34515932D01*
X185145757Y-34594750D01*
X184741743Y-34594750D01*
X184345496Y-34515932D01*
X183972239Y-34361324D01*
X183972238Y-34361324D01*
X183972237Y-34361323D01*
X183636314Y-34136866D01*
X183350634Y-33851186D01*
X183126177Y-33515263D01*
X183083352Y-33411874D01*
X182971568Y-33142004D01*
X182892750Y-32745757D01*
X182892750Y-32341743D01*
X182971568Y-31945496D01*
X183126176Y-31572239D01*
X183126638Y-31571548D01*
X183350634Y-31236314D01*
X183636314Y-30950634D01*
X183972237Y-30726177D01*
X183972239Y-30726176D01*
X184345496Y-30571568D01*
X184741743Y-30492750D01*
X185145757Y-30492750D01*
X185542004Y-30571568D01*
X185542004Y-30571568D01*
G37*
M02*
