G04 #@! TF.GenerationSoftware,KiCad,Pcbnew,(5.1.4)-1*
G04 #@! TF.CreationDate,2020-11-05T19:12:25-08:00*
G04 #@! TF.ProjectId,plate,706c6174-652e-46b6-9963-61645f706362,rev?*
G04 #@! TF.SameCoordinates,Original*
G04 #@! TF.FileFunction,Legend,Bot*
G04 #@! TF.FilePolarity,Positive*
%FSLAX46Y46*%
G04 Gerber Fmt 4.6, Leading zero omitted, Abs format (unit mm)*
G04 Created by KiCad (PCBNEW (5.1.4)-1) date 2020-11-05 19:12:25*
%MOMM*%
%LPD*%
G04 APERTURE LIST*
%ADD10C,0.150000*%
G04 APERTURE END LIST*
D10*
X121602083Y-31996130D02*
X121602083Y-32710416D01*
X121649702Y-32853273D01*
X121744940Y-32948511D01*
X121887797Y-32996130D01*
X121983035Y-32996130D01*
X120649702Y-32996130D02*
X121125892Y-32996130D01*
X121125892Y-31996130D01*
X119744940Y-32900892D02*
X119792559Y-32948511D01*
X119935416Y-32996130D01*
X120030654Y-32996130D01*
X120173511Y-32948511D01*
X120268750Y-32853273D01*
X120316369Y-32758035D01*
X120363988Y-32567559D01*
X120363988Y-32424702D01*
X120316369Y-32234226D01*
X120268750Y-32138988D01*
X120173511Y-32043750D01*
X120030654Y-31996130D01*
X119935416Y-31996130D01*
X119792559Y-32043750D01*
X119744940Y-32091369D01*
X119030654Y-31996130D02*
X119030654Y-32710416D01*
X119078273Y-32853273D01*
X119173511Y-32948511D01*
X119316369Y-32996130D01*
X119411607Y-32996130D01*
X118078273Y-32996130D02*
X118554464Y-32996130D01*
X118554464Y-31996130D01*
X117173511Y-32900892D02*
X117221130Y-32948511D01*
X117363988Y-32996130D01*
X117459226Y-32996130D01*
X117602083Y-32948511D01*
X117697321Y-32853273D01*
X117744940Y-32758035D01*
X117792559Y-32567559D01*
X117792559Y-32424702D01*
X117744940Y-32234226D01*
X117697321Y-32138988D01*
X117602083Y-32043750D01*
X117459226Y-31996130D01*
X117363988Y-31996130D01*
X117221130Y-32043750D01*
X117173511Y-32091369D01*
X116459226Y-31996130D02*
X116459226Y-32710416D01*
X116506845Y-32853273D01*
X116602083Y-32948511D01*
X116744940Y-32996130D01*
X116840178Y-32996130D01*
X115506845Y-32996130D02*
X115983035Y-32996130D01*
X115983035Y-31996130D01*
X114602083Y-32900892D02*
X114649702Y-32948511D01*
X114792559Y-32996130D01*
X114887797Y-32996130D01*
X115030654Y-32948511D01*
X115125892Y-32853273D01*
X115173511Y-32758035D01*
X115221130Y-32567559D01*
X115221130Y-32424702D01*
X115173511Y-32234226D01*
X115125892Y-32138988D01*
X115030654Y-32043750D01*
X114887797Y-31996130D01*
X114792559Y-31996130D01*
X114649702Y-32043750D01*
X114602083Y-32091369D01*
M02*
