G04 #@! TF.GenerationSoftware,KiCad,Pcbnew,(5.1.4)-1*
G04 #@! TF.CreationDate,2020-11-05T19:12:25-08:00*
G04 #@! TF.ProjectId,plate,706c6174-652e-46b6-9963-61645f706362,rev?*
G04 #@! TF.SameCoordinates,Original*
G04 #@! TF.FileFunction,Soldermask,Top*
G04 #@! TF.FilePolarity,Negative*
%FSLAX46Y46*%
G04 Gerber Fmt 4.6, Leading zero omitted, Abs format (unit mm)*
G04 Created by KiCad (PCBNEW (5.1.4)-1) date 2020-11-05 19:12:25*
%MOMM*%
%LPD*%
G04 APERTURE LIST*
%ADD10C,0.060000*%
%ADD11C,0.100000*%
G04 APERTURE END LIST*
D10*
X88439631Y-33340679D02*
G75*
G02X88487027Y-33339517I32367J-352927D01*
G01*
X90261009Y-33162793D02*
X90188915Y-33160999D01*
X88853336Y-33434103D02*
G75*
G02X88916959Y-33486620I-163983J-263455D01*
G01*
X88907425Y-33765416D02*
G75*
G02X88850426Y-33764643I-27336J86130D01*
G01*
X88380105Y-33360105D02*
G75*
G02X88405456Y-33347273I48168J-63701D01*
G01*
X88668714Y-33361231D02*
G75*
G02X88769268Y-33391785I-138066J-635117D01*
G01*
X88966498Y-33564658D02*
G75*
G02X88981817Y-33651386I-196788J-79475D01*
G01*
X88981817Y-33651386D02*
G75*
G02X88960108Y-33724037I-149538J5113D01*
G01*
X88850426Y-33764643D02*
G75*
G02X88749381Y-33723043I319937J920636D01*
G01*
X88749381Y-33723043D02*
G75*
G02X88630772Y-33657952I528879J1104331D01*
G01*
X88356719Y-33397513D02*
G75*
G02X88380105Y-33360104I60689J-11925D01*
G01*
X90124102Y-33161301D02*
X90070083Y-33163109D01*
X88405456Y-33347272D02*
G75*
G02X88439631Y-33340679I50233J-168499D01*
G01*
X88555634Y-33344007D02*
G75*
G02X88668713Y-33361231I-80215J-906400D01*
G01*
X88555635Y-33344006D02*
X88487027Y-33339517D01*
X88916959Y-33486621D02*
G75*
G02X88966498Y-33564659I-187498J-173766D01*
G01*
X88410772Y-33496423D02*
G75*
G02X88364241Y-33440947I147537J170998D01*
G01*
X88960108Y-33724037D02*
G75*
G02X88907425Y-33765416I-81565J49620D01*
G01*
X90052557Y-33167327D02*
G75*
G02X90070083Y-33163109I19670J-43211D01*
G01*
X88410771Y-33496424D02*
X88507308Y-33573795D01*
X90188915Y-33160999D02*
X90124102Y-33161301D01*
X88769268Y-33391785D02*
G75*
G02X88853337Y-33434103I-191354J-484811D01*
G01*
X88364241Y-33440947D02*
G75*
G02X88356720Y-33397513I52991J31544D01*
G01*
X88507308Y-33573795D02*
X88630772Y-33657952D01*
X90147466Y-33353051D02*
G75*
G02X90078705Y-33301068I152661J273406D01*
G01*
X90590823Y-33566916D02*
G75*
G02X90498643Y-33535044I94787J423382D01*
G01*
X90716215Y-33487550D02*
G75*
G02X90690119Y-33536520I-107802J26011D01*
G01*
X90668982Y-33317702D02*
G75*
G02X90717322Y-33429072I-236324J-168752D01*
G01*
X90261009Y-33162792D02*
G75*
G02X90444286Y-33184557I-42584J-1141150D01*
G01*
X89056542Y-32800109D02*
G75*
G02X89062270Y-32862742I-208170J-50613D01*
G01*
X90717323Y-33429071D02*
G75*
G02X90716216Y-33487550I-132650J-26740D01*
G01*
X90690119Y-33536520D02*
G75*
G02X90644919Y-33564925I-74474J68344D01*
G01*
X88967112Y-32678400D02*
G75*
G02X88994062Y-32696199I-93696J-171177D01*
G01*
X90045860Y-33260347D02*
G75*
G02X90029839Y-33220535I95768J61668D01*
G01*
X89031169Y-32938718D02*
G75*
G02X89013118Y-32950267I-30200J27318D01*
G01*
X90032738Y-33188266D02*
G75*
G02X90052557Y-33167327I35695J-13938D01*
G01*
X89062270Y-32862742D02*
G75*
G02X89047416Y-32915637I-127028J7138D01*
G01*
X89047416Y-32915637D02*
G75*
G02X89031169Y-32938718I-102268J54732D01*
G01*
X88429903Y-32622546D02*
G75*
G02X88474482Y-32599609I49201J-40834D01*
G01*
X88883611Y-32639801D02*
X88841176Y-32625332D01*
X88598648Y-32595536D02*
X88474482Y-32599609D01*
X88598648Y-32595536D02*
G75*
G02X88732277Y-32603339I-8795J-1298694D01*
G01*
X88927699Y-32658507D02*
X88883611Y-32639801D01*
X89032527Y-32740450D02*
G75*
G02X89056542Y-32800109I-193447J-112532D01*
G01*
X89013118Y-32950267D02*
G75*
G02X88987006Y-32953477I-21844J69885D01*
G01*
X90444285Y-33184558D02*
G75*
G02X90579376Y-33235972I-87252J-432437D01*
G01*
X88994062Y-32696199D02*
G75*
G02X89032527Y-32740449I-96619J-122832D01*
G01*
X88732277Y-32603339D02*
G75*
G02X88841176Y-32625332I-68235J-618466D01*
G01*
X90147466Y-33353051D02*
X90321894Y-33446994D01*
X90579377Y-33235971D02*
G75*
G02X90668983Y-33317702I-145775J-249809D01*
G01*
X88967112Y-32678400D02*
X88927699Y-32658507D01*
X90644918Y-33564924D02*
G75*
G02X90590823Y-33566915I-30834J101907D01*
G01*
X90029838Y-33220535D02*
G75*
G02X90032737Y-33188266I57001J11144D01*
G01*
X90078705Y-33301068D02*
G75*
G02X90045860Y-33260347I173759J173760D01*
G01*
X88940585Y-32949030D02*
X88987006Y-32953477D01*
X90321894Y-33446994D02*
X90498643Y-33535044D01*
X89740238Y-31485374D02*
X89779032Y-31307235D01*
X89689829Y-31154069D02*
G75*
G02X89758417Y-31207413I-376443J-554792D01*
G01*
X89859463Y-31017551D02*
X90034405Y-30988637D01*
X89609739Y-31060994D02*
G75*
G02X89633846Y-31054648I77246J-244480D01*
G01*
X89662557Y-31049474D02*
X89712624Y-31041650D01*
X89712624Y-31041650D02*
X89859463Y-31017551D01*
X89780603Y-31248221D02*
G75*
G02X89779032Y-31307235I-165168J-25131D01*
G01*
X89591529Y-31067606D02*
X89609739Y-31060994D01*
X89591615Y-31080210D02*
G75*
G02X89588072Y-31073008I6388J7616D01*
G01*
X91160767Y-30699702D02*
G75*
G02X91110207Y-30762585I-93602J23492D01*
G01*
X91110206Y-30762584D02*
G75*
G02X90977776Y-30813250I-326854J655930D01*
G01*
X90977776Y-30813250D02*
G75*
G02X90734501Y-30868508I-732983J2663886D01*
G01*
X90034405Y-30988637D02*
X90227557Y-30956481D01*
X89633846Y-31054648D02*
X89662557Y-31049474D01*
X89588073Y-31073009D02*
G75*
G02X89591529Y-31067606I5585J234D01*
G01*
X89758417Y-31207413D02*
G75*
G02X89780603Y-31248221I-45334J-51082D01*
G01*
X89618176Y-31101921D02*
X89591616Y-31080209D01*
X89650993Y-31126848D02*
X89618176Y-31101921D01*
X89689829Y-31154070D02*
X89650993Y-31126848D01*
X90227557Y-30956481D02*
X90734501Y-30868508D01*
X91436907Y-34437034D02*
G75*
G02X91380612Y-34562953I-1369258J536608D01*
G01*
X91123797Y-31624419D02*
G75*
G02X91264452Y-31599048I336187J-1461215D01*
G01*
X91640094Y-33332416D02*
X91697140Y-32725374D01*
X91307104Y-34696907D02*
X91380612Y-34562953D01*
X91465222Y-31621867D02*
G75*
G02X91584503Y-31676122I-402854J-1043945D01*
G01*
X91895278Y-31896288D02*
X91816417Y-31826579D01*
X91510315Y-34190613D02*
G75*
G02X91436906Y-34437033I-1500587J312885D01*
G01*
X90747557Y-31683922D02*
X90485002Y-31714805D01*
X91775620Y-31794237D02*
X91715762Y-31753627D01*
X91780675Y-32140037D02*
G75*
G02X91831880Y-32020831I939351J-332897D01*
G01*
X89717841Y-31603091D02*
X89740238Y-31485374D01*
X89708771Y-31703416D02*
G75*
G02X89717841Y-31603091I822582J-23795D01*
G01*
X91775621Y-31794237D02*
G75*
G02X91816417Y-31826579I-281122J-396520D01*
G01*
X91748408Y-32259044D02*
G75*
G02X91780675Y-32140038I799531J-152905D01*
G01*
X89711506Y-31777541D02*
G75*
G02X89708771Y-31703415I561121J57815D01*
G01*
X91510316Y-34190613D02*
X91577697Y-33816547D01*
X89731270Y-31795375D02*
G75*
G02X89711506Y-31777541I1J19870D01*
G01*
X91715762Y-31753627D02*
X91648882Y-31712145D01*
X90485002Y-31714805D02*
X90139342Y-31753361D01*
X90852529Y-31670130D02*
X90747557Y-31683922D01*
X91264453Y-31599049D02*
G75*
G02X91367961Y-31598064I55793J-424184D01*
G01*
X91697140Y-32725374D02*
X91724506Y-32423855D01*
X89777701Y-31792857D02*
G75*
G02X89731271Y-31795374I-46430J426906D01*
G01*
X91058565Y-31637638D02*
X90961202Y-31653879D01*
X91831880Y-32020831D02*
X91895278Y-31896288D01*
X91367960Y-31598064D02*
G75*
G02X91465221Y-31621867I-43650J-388956D01*
G01*
X90139342Y-31753361D02*
X89777701Y-31792857D01*
X91724506Y-32423855D02*
G75*
G02X91748408Y-32259044I1844540J-183376D01*
G01*
X91577697Y-33816547D02*
X91640094Y-33332416D01*
X90961202Y-31653879D02*
X90852529Y-31670130D01*
X91648882Y-31712145D02*
X91584503Y-31676122D01*
X91123798Y-31624419D02*
X91058565Y-31637638D01*
X91133134Y-33999914D02*
G75*
G02X91107992Y-34072516I-615995J172669D01*
G01*
X91337694Y-32236227D02*
X91327122Y-32544950D01*
X90829814Y-34592156D02*
X90900184Y-34681467D01*
X90581681Y-34302760D02*
X90679377Y-34415374D01*
X90484719Y-34155914D02*
G75*
G02X90490155Y-34126203I23937J10973D01*
G01*
X90490155Y-34126203D02*
G75*
G02X90496928Y-34124101I5415J-5484D01*
G01*
X90707557Y-34166712D02*
X90626519Y-34148908D01*
X90881355Y-34204609D02*
X90707557Y-34166712D01*
X91047714Y-34160374D02*
G75*
G02X90995483Y-34198193I-199304J220281D01*
G01*
X91081807Y-34121116D02*
G75*
G02X91047714Y-34160374I-179507J121461D01*
G01*
X91267164Y-33292724D02*
X91221094Y-33612805D01*
X91107992Y-34072517D02*
G75*
G02X91081808Y-34121117I-253577J105263D01*
G01*
X91303193Y-32931812D02*
X91267164Y-33292724D01*
X91166549Y-33874105D02*
X91133134Y-33999914D01*
X91327122Y-32544950D02*
X91303193Y-32931812D01*
X91232851Y-34813653D02*
X91307104Y-34696907D01*
X90518956Y-34217900D02*
G75*
G02X90484719Y-34155915I396538J259478D01*
G01*
X91232851Y-34813653D02*
G75*
G02X91182731Y-34864504I-163509J111034D01*
G01*
X90752437Y-34498728D02*
X90829814Y-34592156D01*
X90949066Y-34210954D02*
G75*
G02X90881355Y-34204609I-5664J304026D01*
G01*
X91331269Y-32076212D02*
G75*
G02X91337694Y-32236227I-1248959J-130285D01*
G01*
X91182731Y-34864504D02*
G75*
G02X91123050Y-34892798I-113099J161472D01*
G01*
X90679377Y-34415374D02*
X90752437Y-34498728D01*
X90581681Y-34302760D02*
G75*
G02X90518957Y-34217900I711118J591230D01*
G01*
X90995484Y-34198194D02*
G75*
G02X90949067Y-34210954I-48232J84642D01*
G01*
X91123049Y-34892798D02*
G75*
G02X91073454Y-34888281I-18891J67114D01*
G01*
X91073454Y-34888281D02*
G75*
G02X91022050Y-34847281I67162J136926D01*
G01*
X90626519Y-34148908D02*
X90557070Y-34135088D01*
X90950049Y-34750374D02*
X91022050Y-34847281D01*
X91221094Y-33612805D02*
X91166549Y-33874105D01*
X90900184Y-34681467D02*
X90950049Y-34750374D01*
X90557070Y-34135088D02*
X90496928Y-34124101D01*
X90825917Y-30499411D02*
G75*
G02X90886992Y-30506723I-11630J-355850D01*
G01*
X91121255Y-30603325D02*
G75*
G02X91156254Y-30650460I-93060J-105663D01*
G01*
X90439626Y-32674402D02*
G75*
G02X90197006Y-32573077I927994J2563185D01*
G01*
X91056136Y-30560929D02*
G75*
G02X91121254Y-30603325I-112674J-244268D01*
G01*
X90063710Y-32476996D02*
G75*
G02X90055518Y-32403926I43577J41880D01*
G01*
X90718754Y-32590191D02*
G75*
G02X90705162Y-32653701I-109952J-9679D01*
G01*
X88424747Y-32662867D02*
G75*
G02X88429903Y-32622547I34341J16098D01*
G01*
X90697119Y-32519866D02*
G75*
G02X90718754Y-32590191I-153628J-85753D01*
G01*
X90129628Y-32351842D02*
G75*
G02X90235957Y-32340516I115554J-580043D01*
G01*
X90614432Y-32710564D02*
G75*
G02X90540837Y-32704755I-18399J235994D01*
G01*
X90759264Y-30502240D02*
X90661736Y-30516186D01*
X88940585Y-32949030D02*
G75*
G02X88896757Y-32938824I31024J232434D01*
G01*
X88827417Y-32913611D02*
X88896757Y-32938824D01*
X88749086Y-32880787D02*
X88827417Y-32913611D01*
X88542268Y-32772782D02*
X88671927Y-32844015D01*
X90562627Y-32398345D02*
G75*
G02X90642626Y-32452503I-176491J-346867D01*
G01*
X90667428Y-32693205D02*
G75*
G02X90614431Y-32710564I-62161J100199D01*
G01*
X90963599Y-30526052D02*
X90886992Y-30506723D01*
X90540837Y-32704754D02*
G75*
G02X90439626Y-32674402I220070J917751D01*
G01*
X90963599Y-30526053D02*
G75*
G02X91056136Y-30560929I-196334J-661125D01*
G01*
X90474091Y-32365937D02*
G75*
G02X90562627Y-32398345I-90361J-384004D01*
G01*
X90759264Y-30502240D02*
G75*
G02X90825917Y-30499410I52131J-441509D01*
G01*
X90197006Y-32573076D02*
G75*
G02X90063710Y-32476996I196311J412851D01*
G01*
X90055518Y-32403926D02*
G75*
G02X90129628Y-32351842I96009J-57844D01*
G01*
X90642626Y-32452503D02*
G75*
G02X90697119Y-32519866I-167711J-191393D01*
G01*
X91156253Y-30650459D02*
G75*
G02X91160767Y-30699702I-67949J-31056D01*
G01*
X88671927Y-32844015D02*
X88749086Y-32880787D01*
X90235957Y-32340515D02*
G75*
G02X90357781Y-32346086I15527J-995326D01*
G01*
X90357781Y-32346086D02*
G75*
G02X90474091Y-32365938I-101578J-945802D01*
G01*
X90705162Y-32653702D02*
G75*
G02X90667428Y-32693205I-95254J53215D01*
G01*
X88461438Y-32712764D02*
G75*
G02X88424747Y-32662867I107521J117501D01*
G01*
X88542269Y-32772782D02*
G75*
G02X88461438Y-32712765I251645J423352D01*
G01*
X91308495Y-31983692D02*
G75*
G02X91331269Y-32076212I-323115J-128601D01*
G01*
X89685291Y-33607892D02*
X89687445Y-32981555D01*
X91019097Y-31921783D02*
X91202518Y-31917998D01*
X89688681Y-32626616D02*
X89692396Y-32326096D01*
X89650969Y-34017359D02*
G75*
G02X89603135Y-34121484I-298624J74135D01*
G01*
X89470710Y-34135424D02*
G75*
G02X89423519Y-34053997I529147J361052D01*
G01*
X90754210Y-31936014D02*
X91019097Y-31921783D01*
X89423519Y-34053998D02*
G75*
G02X89373290Y-33925860I793201J384842D01*
G01*
X89674789Y-33868412D02*
X89685291Y-33607892D01*
X89687445Y-32981555D02*
X89688681Y-32626616D01*
X89902211Y-32010459D02*
X90099307Y-31988671D01*
X89704143Y-32047483D02*
G75*
G02X89748421Y-32031350I61101J-98864D01*
G01*
X89697357Y-32059386D02*
G75*
G02X89704143Y-32047484I14313J-276D01*
G01*
X89603135Y-34121484D02*
G75*
G02X89558132Y-34165013I-139374J99066D01*
G01*
X89748421Y-32031350D02*
X89902211Y-32010459D01*
X89692396Y-32326096D02*
X89697356Y-32059386D01*
X89674789Y-33868412D02*
G75*
G02X89650969Y-34017359I-888495J65713D01*
G01*
X90099307Y-31988671D02*
X90347557Y-31966783D01*
X89558132Y-34165013D02*
G75*
G02X89514649Y-34169930I-26558J40129D01*
G01*
X89514649Y-34169930D02*
G75*
G02X89470710Y-34135425I32582J86718D01*
G01*
X89373290Y-33925859D02*
G75*
G02X89346275Y-33796896I709441J215923D01*
G01*
X90347557Y-31966783D02*
X90754210Y-31936014D01*
X89302206Y-32090888D02*
X89345113Y-32083954D01*
X89197526Y-32107067D02*
X89302206Y-32090888D01*
X88691384Y-32186285D02*
X88937557Y-32146696D01*
X88937557Y-32146696D02*
X89072698Y-32126187D01*
X88475123Y-32226225D02*
X88691384Y-32186285D01*
X89402105Y-32708989D02*
X89395465Y-33015726D01*
X89345113Y-32083954D02*
X89412670Y-32072603D01*
X89072698Y-32126187D02*
X89197526Y-32107067D01*
X89342012Y-33661559D02*
G75*
G02X89359792Y-33514303I1129515J-61682D01*
G01*
X89346275Y-33796897D02*
G75*
G02X89342012Y-33661560I782357J92381D01*
G01*
X89375241Y-33401635D02*
G75*
G02X89359792Y-33514303I-1144810J99582D01*
G01*
X89386667Y-33237817D02*
X89375241Y-33401636D01*
X89395465Y-33015726D02*
X89386667Y-33237817D01*
X89412670Y-32072603D02*
X89402105Y-32708989D01*
X88287617Y-32266581D02*
X88475123Y-32226225D01*
X91263296Y-31933093D02*
G75*
G02X91308494Y-31983692I-46642J-87151D01*
G01*
X91202519Y-31917998D02*
G75*
G02X91263296Y-31933094I572J-127590D01*
G01*
X90440763Y-30568465D02*
X90351736Y-30592818D01*
X90661736Y-30516186D02*
X90611005Y-30526280D01*
X90531148Y-30545341D02*
X90440763Y-30568465D01*
X90351736Y-30592818D02*
X90127357Y-30652749D01*
X88351699Y-30942155D02*
X88316700Y-30953049D01*
X88392825Y-30932832D02*
X88351699Y-30942155D01*
X89897278Y-30707340D02*
X89658391Y-30757289D01*
X89221035Y-30833240D02*
X89038140Y-30858541D01*
X89658391Y-30757289D02*
X89407557Y-30803282D01*
X90127357Y-30652749D02*
X89897278Y-30707340D01*
X90611005Y-30526280D02*
X90531148Y-30545341D01*
X89407557Y-30803282D02*
X89221035Y-30833240D01*
X88434793Y-30926698D02*
X88392825Y-30932832D01*
X88804531Y-30886352D02*
X88434793Y-30926698D01*
X89038140Y-30858541D02*
X88804531Y-30886352D01*
X88034217Y-32731837D02*
X88021337Y-32338300D01*
X88029592Y-34410975D02*
G75*
G02X88012177Y-34415374I-17415J32274D01*
G01*
X88076592Y-34350374D02*
G75*
G02X88062843Y-34377536I-187707J77953D01*
G01*
X88117639Y-34089532D02*
G75*
G02X88106466Y-34239623I-1275449J19484D01*
G01*
X87961789Y-34399313D02*
G75*
G02X87888251Y-34339745I430425J606549D01*
G01*
X87817757Y-34265295D02*
G75*
G02X87771115Y-34193272I287803J237493D01*
G01*
X87747535Y-34121301D02*
G75*
G02X87737216Y-34024129I708196J124337D01*
G01*
X87533212Y-32034549D02*
G75*
G02X87536254Y-32000576I58345J11897D01*
G01*
X87734953Y-33852362D02*
X87737216Y-34024129D01*
X87536254Y-32000576D02*
G75*
G02X87557582Y-31968206I89374J-35677D01*
G01*
X88021337Y-32338300D02*
X88129447Y-32307444D01*
X88042095Y-32914820D02*
X88034217Y-32731837D01*
X88055456Y-33141960D02*
X88042095Y-32914820D01*
X88071658Y-33374446D02*
X88055456Y-33141960D01*
X88088431Y-33575374D02*
X88071658Y-33374446D01*
X88112443Y-33881146D02*
X88088431Y-33575374D01*
X88117639Y-34089532D02*
X88112443Y-33881146D01*
X88106467Y-34239622D02*
G75*
G02X88076592Y-34350374I-438029J58750D01*
G01*
X87690853Y-32428459D02*
G75*
G02X87730915Y-32614319I-902718J-291828D01*
G01*
X87608317Y-32217025D02*
G75*
G02X87690853Y-32428459I-1733440J-798498D01*
G01*
X88062843Y-34377536D02*
G75*
G02X88046824Y-34398083I-94175J56906D01*
G01*
X87888251Y-34339745D02*
G75*
G02X87817757Y-34265295I509764J553276D01*
G01*
X88046824Y-34398083D02*
G75*
G02X88029592Y-34410976I-51988J51520D01*
G01*
X87730915Y-32614320D02*
G75*
G02X87745118Y-32867886I-2255592J-253524D01*
G01*
X88012177Y-34415374D02*
G75*
G02X87961790Y-34399313I0J87066D01*
G01*
X87741043Y-33397872D02*
X87734953Y-33852362D01*
X87745118Y-32867886D02*
X87741043Y-33397872D01*
X87549926Y-32087200D02*
G75*
G02X87533211Y-32034549I238472J104685D01*
G01*
X87549925Y-32087199D02*
X87608317Y-32217024D01*
X87557582Y-31968206D02*
G75*
G02X87595368Y-31950997I41889J-41890D01*
G01*
X87771115Y-34193272D02*
G75*
G02X87747534Y-34121301I238450J117976D01*
G01*
X88129447Y-32307444D02*
X88287617Y-32266581D01*
X88737557Y-31954729D02*
X88568998Y-31986781D01*
X88273133Y-30993709D02*
G75*
G02X88276880Y-30980834I14258J2833D01*
G01*
X88424431Y-31111113D02*
G75*
G02X88311593Y-31041229I92221J274943D01*
G01*
X89324194Y-31195400D02*
G75*
G02X89359108Y-31296172I-612100J-268508D01*
G01*
X88900808Y-31924126D02*
X88737557Y-31954729D01*
X88822997Y-31168069D02*
G75*
G02X88604400Y-31153974I-20941J1377418D01*
G01*
X89275441Y-31863378D02*
X89198024Y-31873470D01*
X89198024Y-31873470D02*
X89060560Y-31896037D01*
X88296225Y-30963875D02*
G75*
G02X88316700Y-30953049I47312J-64704D01*
G01*
X89413326Y-31849260D02*
X89275441Y-31863378D01*
X87595368Y-31950998D02*
G75*
G02X87650128Y-31956259I11593J-166957D01*
G01*
X87917116Y-32099664D02*
X87817095Y-32037488D01*
X87650128Y-31956259D02*
G75*
G02X87723032Y-31984290I-95042J-356007D01*
G01*
X87817095Y-32037488D02*
X87723032Y-31984290D01*
X88234937Y-32047636D02*
X88127336Y-32065813D01*
X88568998Y-31986781D02*
X88393304Y-32019219D01*
X89141138Y-31138691D02*
X89209214Y-31133260D01*
X89057557Y-31149381D02*
G75*
G02X88822997Y-31168069I-262392J1811923D01*
G01*
X89057557Y-31149380D02*
X89141138Y-31138691D01*
X89280364Y-31138526D02*
G75*
G02X89324194Y-31195400I-92708J-116769D01*
G01*
X89060560Y-31896037D02*
X88900808Y-31924126D01*
X89385002Y-31431583D02*
X89400000Y-31600000D01*
X89359108Y-31296172D02*
G75*
G02X89385002Y-31431583I-1031763J-267482D01*
G01*
X88604400Y-31153974D02*
G75*
G02X88424432Y-31111114I147957J1020521D01*
G01*
X88280873Y-31009044D02*
X88311593Y-31041229D01*
X88127336Y-32065813D02*
X87917116Y-32099664D01*
X89209214Y-31133260D02*
X89261985Y-31132077D01*
X88393304Y-32019219D02*
X88234937Y-32047636D01*
X88280873Y-31009044D02*
G75*
G02X88273132Y-30993709I23690J21580D01*
G01*
X88276881Y-30980834D02*
G75*
G02X88296225Y-30963875I105344J-100653D01*
G01*
X89261986Y-31132077D02*
G75*
G02X89280365Y-31138526I-115J-29742D01*
G01*
X89400000Y-31600000D02*
X89413326Y-31849260D01*
D11*
G36*
X109342004Y-49621568D02*
G01*
X109715261Y-49776176D01*
X109715263Y-49776177D01*
X110051186Y-50000634D01*
X110336866Y-50286314D01*
X110560863Y-50621548D01*
X110561324Y-50622239D01*
X110715932Y-50995496D01*
X110794750Y-51391743D01*
X110794750Y-51795757D01*
X110715932Y-52192004D01*
X110604148Y-52461874D01*
X110561323Y-52565263D01*
X110336866Y-52901186D01*
X110051186Y-53186866D01*
X109715263Y-53411323D01*
X109715262Y-53411324D01*
X109715261Y-53411324D01*
X109342004Y-53565932D01*
X108945757Y-53644750D01*
X108541743Y-53644750D01*
X108145496Y-53565932D01*
X107772239Y-53411324D01*
X107772238Y-53411324D01*
X107772237Y-53411323D01*
X107436314Y-53186866D01*
X107150634Y-52901186D01*
X106926177Y-52565263D01*
X106883352Y-52461874D01*
X106771568Y-52192004D01*
X106692750Y-51795757D01*
X106692750Y-51391743D01*
X106771568Y-50995496D01*
X106926176Y-50622239D01*
X106926638Y-50621548D01*
X107150634Y-50286314D01*
X107436314Y-50000634D01*
X107772237Y-49776177D01*
X107772239Y-49776176D01*
X108145496Y-49621568D01*
X108541743Y-49542750D01*
X108945757Y-49542750D01*
X109342004Y-49621568D01*
X109342004Y-49621568D01*
G37*
G36*
X33142004Y-49621568D02*
G01*
X33515261Y-49776176D01*
X33515263Y-49776177D01*
X33851186Y-50000634D01*
X34136866Y-50286314D01*
X34360863Y-50621548D01*
X34361324Y-50622239D01*
X34515932Y-50995496D01*
X34594750Y-51391743D01*
X34594750Y-51795757D01*
X34515932Y-52192004D01*
X34404148Y-52461874D01*
X34361323Y-52565263D01*
X34136866Y-52901186D01*
X33851186Y-53186866D01*
X33515263Y-53411323D01*
X33515262Y-53411324D01*
X33515261Y-53411324D01*
X33142004Y-53565932D01*
X32745757Y-53644750D01*
X32341743Y-53644750D01*
X31945496Y-53565932D01*
X31572239Y-53411324D01*
X31572238Y-53411324D01*
X31572237Y-53411323D01*
X31236314Y-53186866D01*
X30950634Y-52901186D01*
X30726177Y-52565263D01*
X30683352Y-52461874D01*
X30571568Y-52192004D01*
X30492750Y-51795757D01*
X30492750Y-51391743D01*
X30571568Y-50995496D01*
X30726176Y-50622239D01*
X30726638Y-50621548D01*
X30950634Y-50286314D01*
X31236314Y-50000634D01*
X31572237Y-49776177D01*
X31572239Y-49776176D01*
X31945496Y-49621568D01*
X32341743Y-49542750D01*
X32745757Y-49542750D01*
X33142004Y-49621568D01*
X33142004Y-49621568D01*
G37*
G36*
X185542004Y-49621568D02*
G01*
X185915261Y-49776176D01*
X185915263Y-49776177D01*
X186251186Y-50000634D01*
X186536866Y-50286314D01*
X186760863Y-50621548D01*
X186761324Y-50622239D01*
X186915932Y-50995496D01*
X186994750Y-51391743D01*
X186994750Y-51795757D01*
X186915932Y-52192004D01*
X186804148Y-52461874D01*
X186761323Y-52565263D01*
X186536866Y-52901186D01*
X186251186Y-53186866D01*
X185915263Y-53411323D01*
X185915262Y-53411324D01*
X185915261Y-53411324D01*
X185542004Y-53565932D01*
X185145757Y-53644750D01*
X184741743Y-53644750D01*
X184345496Y-53565932D01*
X183972239Y-53411324D01*
X183972238Y-53411324D01*
X183972237Y-53411323D01*
X183636314Y-53186866D01*
X183350634Y-52901186D01*
X183126177Y-52565263D01*
X183083352Y-52461874D01*
X182971568Y-52192004D01*
X182892750Y-51795757D01*
X182892750Y-51391743D01*
X182971568Y-50995496D01*
X183126176Y-50622239D01*
X183126638Y-50621548D01*
X183350634Y-50286314D01*
X183636314Y-50000634D01*
X183972237Y-49776177D01*
X183972239Y-49776176D01*
X184345496Y-49621568D01*
X184741743Y-49542750D01*
X185145757Y-49542750D01*
X185542004Y-49621568D01*
X185542004Y-49621568D01*
G37*
G36*
X109342004Y-30571568D02*
G01*
X109715261Y-30726176D01*
X109715263Y-30726177D01*
X110051186Y-30950634D01*
X110336866Y-31236314D01*
X110560863Y-31571548D01*
X110561324Y-31572239D01*
X110715932Y-31945496D01*
X110794750Y-32341743D01*
X110794750Y-32745757D01*
X110715932Y-33142004D01*
X110604148Y-33411874D01*
X110561323Y-33515263D01*
X110336866Y-33851186D01*
X110051186Y-34136866D01*
X109715263Y-34361323D01*
X109715262Y-34361324D01*
X109715261Y-34361324D01*
X109342004Y-34515932D01*
X108945757Y-34594750D01*
X108541743Y-34594750D01*
X108145496Y-34515932D01*
X107772239Y-34361324D01*
X107772238Y-34361324D01*
X107772237Y-34361323D01*
X107436314Y-34136866D01*
X107150634Y-33851186D01*
X106926177Y-33515263D01*
X106883352Y-33411874D01*
X106771568Y-33142004D01*
X106692750Y-32745757D01*
X106692750Y-32341743D01*
X106771568Y-31945496D01*
X106926176Y-31572239D01*
X106926638Y-31571548D01*
X107150634Y-31236314D01*
X107436314Y-30950634D01*
X107772237Y-30726177D01*
X107772239Y-30726176D01*
X108145496Y-30571568D01*
X108541743Y-30492750D01*
X108945757Y-30492750D01*
X109342004Y-30571568D01*
X109342004Y-30571568D01*
G37*
G36*
X33142004Y-30571568D02*
G01*
X33515261Y-30726176D01*
X33515263Y-30726177D01*
X33851186Y-30950634D01*
X34136866Y-31236314D01*
X34360863Y-31571548D01*
X34361324Y-31572239D01*
X34515932Y-31945496D01*
X34594750Y-32341743D01*
X34594750Y-32745757D01*
X34515932Y-33142004D01*
X34404148Y-33411874D01*
X34361323Y-33515263D01*
X34136866Y-33851186D01*
X33851186Y-34136866D01*
X33515263Y-34361323D01*
X33515262Y-34361324D01*
X33515261Y-34361324D01*
X33142004Y-34515932D01*
X32745757Y-34594750D01*
X32341743Y-34594750D01*
X31945496Y-34515932D01*
X31572239Y-34361324D01*
X31572238Y-34361324D01*
X31572237Y-34361323D01*
X31236314Y-34136866D01*
X30950634Y-33851186D01*
X30726177Y-33515263D01*
X30683352Y-33411874D01*
X30571568Y-33142004D01*
X30492750Y-32745757D01*
X30492750Y-32341743D01*
X30571568Y-31945496D01*
X30726176Y-31572239D01*
X30726638Y-31571548D01*
X30950634Y-31236314D01*
X31236314Y-30950634D01*
X31572237Y-30726177D01*
X31572239Y-30726176D01*
X31945496Y-30571568D01*
X32341743Y-30492750D01*
X32745757Y-30492750D01*
X33142004Y-30571568D01*
X33142004Y-30571568D01*
G37*
G36*
X185542004Y-30571568D02*
G01*
X185915261Y-30726176D01*
X185915263Y-30726177D01*
X186251186Y-30950634D01*
X186536866Y-31236314D01*
X186760863Y-31571548D01*
X186761324Y-31572239D01*
X186915932Y-31945496D01*
X186994750Y-32341743D01*
X186994750Y-32745757D01*
X186915932Y-33142004D01*
X186804148Y-33411874D01*
X186761323Y-33515263D01*
X186536866Y-33851186D01*
X186251186Y-34136866D01*
X185915263Y-34361323D01*
X185915262Y-34361324D01*
X185915261Y-34361324D01*
X185542004Y-34515932D01*
X185145757Y-34594750D01*
X184741743Y-34594750D01*
X184345496Y-34515932D01*
X183972239Y-34361324D01*
X183972238Y-34361324D01*
X183972237Y-34361323D01*
X183636314Y-34136866D01*
X183350634Y-33851186D01*
X183126177Y-33515263D01*
X183083352Y-33411874D01*
X182971568Y-33142004D01*
X182892750Y-32745757D01*
X182892750Y-32341743D01*
X182971568Y-31945496D01*
X183126176Y-31572239D01*
X183126638Y-31571548D01*
X183350634Y-31236314D01*
X183636314Y-30950634D01*
X183972237Y-30726177D01*
X183972239Y-30726176D01*
X184345496Y-30571568D01*
X184741743Y-30492750D01*
X185145757Y-30492750D01*
X185542004Y-30571568D01*
X185542004Y-30571568D01*
G37*
M02*
