M48
; DRILL file {KiCad (5.1.4)-1} date 11/5/2020 6:40:20 PM
; FORMAT={-:-/ absolute / inch / decimal}
; #@! TF.CreationDate,2020-11-05T18:40:20-08:00
; #@! TF.GenerationSoftware,Kicad,Pcbnew,(5.1.4)-1
; #@! TF.FileFunction,NonPlated,1,2,NPTH
FMAT,2
INCH
T1C0.0689
T2C0.1200
T3C0.1570
T4C0.1575
%
G90
G05
T1
X3.7062Y-2.4062
X4.1063Y-2.4062
X4.4562Y-2.4062
X4.8563Y-2.4062
X4.0812Y-2.4062
X4.4813Y-2.4062
X5.2062Y-2.4062
X5.6063Y-2.4062
X2.9562Y-2.4062
X3.3562Y-2.4062
X7.4562Y-1.6562
X7.8563Y-1.6562
X5.9562Y-1.6562
X6.3563Y-1.6562
X5.2062Y-1.6562
X5.6063Y-1.6562
X5.9562Y-2.4062
X6.3563Y-2.4062
X4.4562Y-1.6562
X4.8563Y-1.6562
X0.7062Y-2.4062
X1.1062Y-2.4062
X6.7062Y-1.6562
X7.1063Y-1.6562
X6.7062Y-2.4062
X7.1063Y-2.4062
X7.4562Y-2.4062
X7.8563Y-2.4062
X2.2062Y-2.4062
X2.6062Y-2.4062
X1.4563Y-2.4062
X1.8562Y-2.4062
X2.9562Y-0.9062
X3.3562Y-0.9062
X1.4563Y-0.9062
X1.8562Y-0.9062
X0.7062Y-0.9062
X1.1062Y-0.9062
X6.7062Y-0.9062
X7.1063Y-0.9062
X2.2062Y-0.9062
X2.6062Y-0.9062
X2.9562Y-1.6562
X3.3562Y-1.6562
X2.2062Y-1.6562
X2.6062Y-1.6562
X1.4563Y-1.6562
X1.8562Y-1.6562
X5.2062Y-0.9062
X5.6063Y-0.9062
X4.4562Y-0.9062
X4.8563Y-0.9062
X0.7062Y-1.6562
X1.1062Y-1.6562
X5.9562Y-0.9062
X6.3563Y-0.9062
X3.7062Y-0.9062
X4.1063Y-0.9062
X3.7062Y-1.6562
X4.1063Y-1.6562
X7.4562Y-0.9062
X7.8563Y-0.9062
T2
X3.8125Y-2.6812
X4.75Y-2.6812
T3
X3.9062Y-2.4062
X4.6562Y-2.4062
X3.8125Y-2.0812
X4.2812Y-2.4062
X4.75Y-2.0812
X5.4062Y-2.4062
X3.1562Y-2.4062
X7.6562Y-1.6562
X6.1562Y-1.6562
X5.4062Y-1.6562
X6.1562Y-2.4062
X4.6562Y-1.6562
X0.9062Y-2.4062
X6.9062Y-1.6562
X6.9062Y-2.4062
X7.6562Y-2.4062
X2.4062Y-2.4062
X1.6562Y-2.4062
X3.1562Y-0.9062
X1.6562Y-0.9062
X0.9062Y-0.9062
X6.9062Y-0.9062
X2.4062Y-0.9062
X3.1562Y-1.6562
X2.4062Y-1.6562
X1.6562Y-1.6562
X5.4062Y-0.9062
X4.6562Y-0.9062
X0.9062Y-1.6562
X6.1562Y-0.9062
X3.9062Y-0.9062
X3.9062Y-1.6562
X7.6562Y-0.9062
T4
X4.2812Y-2.0312
X1.2812Y-1.2812
X4.2812Y-1.2812
X7.2812Y-2.0312
X7.2812Y-1.2812
X1.2812Y-2.0312
T0
M30
