G04 #@! TF.GenerationSoftware,KiCad,Pcbnew,(5.1.4)-1*
G04 #@! TF.CreationDate,2020-11-05T18:40:19-08:00*
G04 #@! TF.ProjectId,domino,646f6d69-6e6f-42e6-9b69-6361645f7063,rev?*
G04 #@! TF.SameCoordinates,Original*
G04 #@! TF.FileFunction,Legend,Bot*
G04 #@! TF.FilePolarity,Positive*
%FSLAX46Y46*%
G04 Gerber Fmt 4.6, Leading zero omitted, Abs format (unit mm)*
G04 Created by KiCad (PCBNEW (5.1.4)-1) date 2020-11-05 18:40:19*
%MOMM*%
%LPD*%
G04 APERTURE LIST*
%ADD10C,0.150000*%
%ADD11C,0.120000*%
%ADD12C,0.381000*%
G04 APERTURE END LIST*
D10*
X65737797Y-31996130D02*
X65737797Y-32710416D01*
X65785416Y-32853273D01*
X65880654Y-32948511D01*
X66023511Y-32996130D01*
X66118750Y-32996130D01*
X64785416Y-32996130D02*
X65261607Y-32996130D01*
X65261607Y-31996130D01*
X63880654Y-32900892D02*
X63928273Y-32948511D01*
X64071130Y-32996130D01*
X64166369Y-32996130D01*
X64309226Y-32948511D01*
X64404464Y-32853273D01*
X64452083Y-32758035D01*
X64499702Y-32567559D01*
X64499702Y-32424702D01*
X64452083Y-32234226D01*
X64404464Y-32138988D01*
X64309226Y-32043750D01*
X64166369Y-31996130D01*
X64071130Y-31996130D01*
X63928273Y-32043750D01*
X63880654Y-32091369D01*
X63166369Y-31996130D02*
X63166369Y-32710416D01*
X63213988Y-32853273D01*
X63309226Y-32948511D01*
X63452083Y-32996130D01*
X63547321Y-32996130D01*
X62213988Y-32996130D02*
X62690178Y-32996130D01*
X62690178Y-31996130D01*
X61309226Y-32900892D02*
X61356845Y-32948511D01*
X61499702Y-32996130D01*
X61594940Y-32996130D01*
X61737797Y-32948511D01*
X61833035Y-32853273D01*
X61880654Y-32758035D01*
X61928273Y-32567559D01*
X61928273Y-32424702D01*
X61880654Y-32234226D01*
X61833035Y-32138988D01*
X61737797Y-32043750D01*
X61594940Y-31996130D01*
X61499702Y-31996130D01*
X61356845Y-32043750D01*
X61309226Y-32091369D01*
X60594940Y-31996130D02*
X60594940Y-32710416D01*
X60642559Y-32853273D01*
X60737797Y-32948511D01*
X60880654Y-32996130D01*
X60975892Y-32996130D01*
X59642559Y-32996130D02*
X60118750Y-32996130D01*
X60118750Y-31996130D01*
X58737797Y-32900892D02*
X58785416Y-32948511D01*
X58928273Y-32996130D01*
X59023511Y-32996130D01*
X59166369Y-32948511D01*
X59261607Y-32853273D01*
X59309226Y-32758035D01*
X59356845Y-32567559D01*
X59356845Y-32424702D01*
X59309226Y-32234226D01*
X59261607Y-32138988D01*
X59166369Y-32043750D01*
X59023511Y-31996130D01*
X58928273Y-31996130D01*
X58785416Y-32043750D01*
X58737797Y-32091369D01*
X58023511Y-31996130D02*
X58023511Y-32710416D01*
X58071130Y-32853273D01*
X58166369Y-32948511D01*
X58309226Y-32996130D01*
X58404464Y-32996130D01*
X57071130Y-32996130D02*
X57547321Y-32996130D01*
X57547321Y-31996130D01*
X56166369Y-32900892D02*
X56213988Y-32948511D01*
X56356845Y-32996130D01*
X56452083Y-32996130D01*
X56594940Y-32948511D01*
X56690178Y-32853273D01*
X56737797Y-32758035D01*
X56785416Y-32567559D01*
X56785416Y-32424702D01*
X56737797Y-32234226D01*
X56690178Y-32138988D01*
X56594940Y-32043750D01*
X56452083Y-31996130D01*
X56356845Y-31996130D01*
X56213988Y-32043750D01*
X56166369Y-32091369D01*
D11*
X92401250Y-62797500D02*
X90161250Y-62797500D01*
X92401250Y-62557500D02*
X90161250Y-62557500D01*
X92401250Y-62677500D02*
X90161250Y-62677500D01*
X91281250Y-58507500D02*
X91281250Y-59157500D01*
X91281250Y-64047500D02*
X91281250Y-63397500D01*
X92401250Y-59157500D02*
X92401250Y-63397500D01*
X90161250Y-59157500D02*
X92401250Y-59157500D01*
X90161250Y-63397500D02*
X90161250Y-59157500D01*
X92401250Y-63397500D02*
X90161250Y-63397500D01*
X127326250Y-62797500D02*
X125086250Y-62797500D01*
X127326250Y-62557500D02*
X125086250Y-62557500D01*
X127326250Y-62677500D02*
X125086250Y-62677500D01*
X126206250Y-58507500D02*
X126206250Y-59157500D01*
X126206250Y-64047500D02*
X126206250Y-63397500D01*
X127326250Y-59157500D02*
X127326250Y-63397500D01*
X125086250Y-59157500D02*
X127326250Y-59157500D01*
X125086250Y-63397500D02*
X125086250Y-59157500D01*
X127326250Y-63397500D02*
X125086250Y-63397500D01*
D12*
X54768750Y-17303750D02*
X52228750Y-17303750D01*
X70008750Y-14763750D02*
X52228750Y-14763750D01*
X52228750Y-14763750D02*
X52228750Y-47783750D01*
X52228750Y-47783750D02*
X70008750Y-47783750D01*
X70008750Y-47783750D02*
X70008750Y-14763750D01*
X54768750Y-17303750D02*
X54768750Y-19843750D01*
X54768750Y-19843750D02*
X52228750Y-19843750D01*
D11*
X77612500Y-14081250D02*
X71612500Y-14081250D01*
X77612500Y-16081250D02*
X77612500Y-14081250D01*
X71612500Y-16081250D02*
X77612500Y-16081250D01*
X71612500Y-14081250D02*
X71612500Y-16081250D01*
X203526250Y-62797500D02*
X201286250Y-62797500D01*
X203526250Y-62557500D02*
X201286250Y-62557500D01*
X203526250Y-62677500D02*
X201286250Y-62677500D01*
X202406250Y-58507500D02*
X202406250Y-59157500D01*
X202406250Y-64047500D02*
X202406250Y-63397500D01*
X203526250Y-59157500D02*
X203526250Y-63397500D01*
X201286250Y-59157500D02*
X203526250Y-59157500D01*
X201286250Y-63397500D02*
X201286250Y-59157500D01*
X203526250Y-63397500D02*
X201286250Y-63397500D01*
X184476250Y-62797500D02*
X182236250Y-62797500D01*
X184476250Y-62557500D02*
X182236250Y-62557500D01*
X184476250Y-62677500D02*
X182236250Y-62677500D01*
X183356250Y-58507500D02*
X183356250Y-59157500D01*
X183356250Y-64047500D02*
X183356250Y-63397500D01*
X184476250Y-59157500D02*
X184476250Y-63397500D01*
X182236250Y-59157500D02*
X184476250Y-59157500D01*
X182236250Y-63397500D02*
X182236250Y-59157500D01*
X184476250Y-63397500D02*
X182236250Y-63397500D01*
X165426250Y-62797500D02*
X163186250Y-62797500D01*
X165426250Y-62557500D02*
X163186250Y-62557500D01*
X165426250Y-62677500D02*
X163186250Y-62677500D01*
X164306250Y-58507500D02*
X164306250Y-59157500D01*
X164306250Y-64047500D02*
X164306250Y-63397500D01*
X165426250Y-59157500D02*
X165426250Y-63397500D01*
X163186250Y-59157500D02*
X165426250Y-59157500D01*
X163186250Y-63397500D02*
X163186250Y-59157500D01*
X165426250Y-63397500D02*
X163186250Y-63397500D01*
X146376250Y-62797500D02*
X144136250Y-62797500D01*
X146376250Y-62557500D02*
X144136250Y-62557500D01*
X146376250Y-62677500D02*
X144136250Y-62677500D01*
X145256250Y-58507500D02*
X145256250Y-59157500D01*
X145256250Y-64047500D02*
X145256250Y-63397500D01*
X146376250Y-59157500D02*
X146376250Y-63397500D01*
X144136250Y-59157500D02*
X146376250Y-59157500D01*
X144136250Y-63397500D02*
X144136250Y-59157500D01*
X146376250Y-63397500D02*
X144136250Y-63397500D01*
X89226250Y-62797500D02*
X86986250Y-62797500D01*
X89226250Y-62557500D02*
X86986250Y-62557500D01*
X89226250Y-62677500D02*
X86986250Y-62677500D01*
X88106250Y-58507500D02*
X88106250Y-59157500D01*
X88106250Y-64047500D02*
X88106250Y-63397500D01*
X89226250Y-59157500D02*
X89226250Y-63397500D01*
X86986250Y-59157500D02*
X89226250Y-59157500D01*
X86986250Y-63397500D02*
X86986250Y-59157500D01*
X89226250Y-63397500D02*
X86986250Y-63397500D01*
X70176250Y-62797500D02*
X67936250Y-62797500D01*
X70176250Y-62557500D02*
X67936250Y-62557500D01*
X70176250Y-62677500D02*
X67936250Y-62677500D01*
X69056250Y-58507500D02*
X69056250Y-59157500D01*
X69056250Y-64047500D02*
X69056250Y-63397500D01*
X70176250Y-59157500D02*
X70176250Y-63397500D01*
X67936250Y-59157500D02*
X70176250Y-59157500D01*
X67936250Y-63397500D02*
X67936250Y-59157500D01*
X70176250Y-63397500D02*
X67936250Y-63397500D01*
X51126250Y-62797500D02*
X48886250Y-62797500D01*
X51126250Y-62557500D02*
X48886250Y-62557500D01*
X51126250Y-62677500D02*
X48886250Y-62677500D01*
X50006250Y-58507500D02*
X50006250Y-59157500D01*
X50006250Y-64047500D02*
X50006250Y-63397500D01*
X51126250Y-59157500D02*
X51126250Y-63397500D01*
X48886250Y-59157500D02*
X51126250Y-59157500D01*
X48886250Y-63397500D02*
X48886250Y-59157500D01*
X51126250Y-63397500D02*
X48886250Y-63397500D01*
X32076250Y-62797500D02*
X29836250Y-62797500D01*
X32076250Y-62557500D02*
X29836250Y-62557500D01*
X32076250Y-62677500D02*
X29836250Y-62677500D01*
X30956250Y-58507500D02*
X30956250Y-59157500D01*
X30956250Y-64047500D02*
X30956250Y-63397500D01*
X32076250Y-59157500D02*
X32076250Y-63397500D01*
X29836250Y-59157500D02*
X32076250Y-59157500D01*
X29836250Y-63397500D02*
X29836250Y-59157500D01*
X32076250Y-63397500D02*
X29836250Y-63397500D01*
X203526250Y-43747500D02*
X201286250Y-43747500D01*
X203526250Y-43507500D02*
X201286250Y-43507500D01*
X203526250Y-43627500D02*
X201286250Y-43627500D01*
X202406250Y-39457500D02*
X202406250Y-40107500D01*
X202406250Y-44997500D02*
X202406250Y-44347500D01*
X203526250Y-40107500D02*
X203526250Y-44347500D01*
X201286250Y-40107500D02*
X203526250Y-40107500D01*
X201286250Y-44347500D02*
X201286250Y-40107500D01*
X203526250Y-44347500D02*
X201286250Y-44347500D01*
X184476250Y-43747500D02*
X182236250Y-43747500D01*
X184476250Y-43507500D02*
X182236250Y-43507500D01*
X184476250Y-43627500D02*
X182236250Y-43627500D01*
X183356250Y-39457500D02*
X183356250Y-40107500D01*
X183356250Y-44997500D02*
X183356250Y-44347500D01*
X184476250Y-40107500D02*
X184476250Y-44347500D01*
X182236250Y-40107500D02*
X184476250Y-40107500D01*
X182236250Y-44347500D02*
X182236250Y-40107500D01*
X184476250Y-44347500D02*
X182236250Y-44347500D01*
X165426250Y-43747500D02*
X163186250Y-43747500D01*
X165426250Y-43507500D02*
X163186250Y-43507500D01*
X165426250Y-43627500D02*
X163186250Y-43627500D01*
X164306250Y-39457500D02*
X164306250Y-40107500D01*
X164306250Y-44997500D02*
X164306250Y-44347500D01*
X165426250Y-40107500D02*
X165426250Y-44347500D01*
X163186250Y-40107500D02*
X165426250Y-40107500D01*
X163186250Y-44347500D02*
X163186250Y-40107500D01*
X165426250Y-44347500D02*
X163186250Y-44347500D01*
X146376250Y-43747500D02*
X144136250Y-43747500D01*
X146376250Y-43507500D02*
X144136250Y-43507500D01*
X146376250Y-43627500D02*
X144136250Y-43627500D01*
X145256250Y-39457500D02*
X145256250Y-40107500D01*
X145256250Y-44997500D02*
X145256250Y-44347500D01*
X146376250Y-40107500D02*
X146376250Y-44347500D01*
X144136250Y-40107500D02*
X146376250Y-40107500D01*
X144136250Y-44347500D02*
X144136250Y-40107500D01*
X146376250Y-44347500D02*
X144136250Y-44347500D01*
X127326250Y-43747500D02*
X125086250Y-43747500D01*
X127326250Y-43507500D02*
X125086250Y-43507500D01*
X127326250Y-43627500D02*
X125086250Y-43627500D01*
X126206250Y-39457500D02*
X126206250Y-40107500D01*
X126206250Y-44997500D02*
X126206250Y-44347500D01*
X127326250Y-40107500D02*
X127326250Y-44347500D01*
X125086250Y-40107500D02*
X127326250Y-40107500D01*
X125086250Y-44347500D02*
X125086250Y-40107500D01*
X127326250Y-44347500D02*
X125086250Y-44347500D01*
X108276250Y-43747500D02*
X106036250Y-43747500D01*
X108276250Y-43507500D02*
X106036250Y-43507500D01*
X108276250Y-43627500D02*
X106036250Y-43627500D01*
X107156250Y-39457500D02*
X107156250Y-40107500D01*
X107156250Y-44997500D02*
X107156250Y-44347500D01*
X108276250Y-40107500D02*
X108276250Y-44347500D01*
X106036250Y-40107500D02*
X108276250Y-40107500D01*
X106036250Y-44347500D02*
X106036250Y-40107500D01*
X108276250Y-44347500D02*
X106036250Y-44347500D01*
X89226250Y-43747500D02*
X86986250Y-43747500D01*
X89226250Y-43507500D02*
X86986250Y-43507500D01*
X89226250Y-43627500D02*
X86986250Y-43627500D01*
X88106250Y-39457500D02*
X88106250Y-40107500D01*
X88106250Y-44997500D02*
X88106250Y-44347500D01*
X89226250Y-40107500D02*
X89226250Y-44347500D01*
X86986250Y-40107500D02*
X89226250Y-40107500D01*
X86986250Y-44347500D02*
X86986250Y-40107500D01*
X89226250Y-44347500D02*
X86986250Y-44347500D01*
X73351250Y-43747500D02*
X71111250Y-43747500D01*
X73351250Y-43507500D02*
X71111250Y-43507500D01*
X73351250Y-43627500D02*
X71111250Y-43627500D01*
X72231250Y-39457500D02*
X72231250Y-40107500D01*
X72231250Y-44997500D02*
X72231250Y-44347500D01*
X73351250Y-40107500D02*
X73351250Y-44347500D01*
X71111250Y-40107500D02*
X73351250Y-40107500D01*
X71111250Y-44347500D02*
X71111250Y-40107500D01*
X73351250Y-44347500D02*
X71111250Y-44347500D01*
X51126250Y-43747500D02*
X48886250Y-43747500D01*
X51126250Y-43507500D02*
X48886250Y-43507500D01*
X51126250Y-43627500D02*
X48886250Y-43627500D01*
X50006250Y-39457500D02*
X50006250Y-40107500D01*
X50006250Y-44997500D02*
X50006250Y-44347500D01*
X51126250Y-40107500D02*
X51126250Y-44347500D01*
X48886250Y-40107500D02*
X51126250Y-40107500D01*
X48886250Y-44347500D02*
X48886250Y-40107500D01*
X51126250Y-44347500D02*
X48886250Y-44347500D01*
X32076250Y-43747500D02*
X29836250Y-43747500D01*
X32076250Y-43507500D02*
X29836250Y-43507500D01*
X32076250Y-43627500D02*
X29836250Y-43627500D01*
X30956250Y-39457500D02*
X30956250Y-40107500D01*
X30956250Y-44997500D02*
X30956250Y-44347500D01*
X32076250Y-40107500D02*
X32076250Y-44347500D01*
X29836250Y-40107500D02*
X32076250Y-40107500D01*
X29836250Y-44347500D02*
X29836250Y-40107500D01*
X32076250Y-44347500D02*
X29836250Y-44347500D01*
X203526250Y-24697500D02*
X201286250Y-24697500D01*
X203526250Y-24457500D02*
X201286250Y-24457500D01*
X203526250Y-24577500D02*
X201286250Y-24577500D01*
X202406250Y-20407500D02*
X202406250Y-21057500D01*
X202406250Y-25947500D02*
X202406250Y-25297500D01*
X203526250Y-21057500D02*
X203526250Y-25297500D01*
X201286250Y-21057500D02*
X203526250Y-21057500D01*
X201286250Y-25297500D02*
X201286250Y-21057500D01*
X203526250Y-25297500D02*
X201286250Y-25297500D01*
X184476250Y-24697500D02*
X182236250Y-24697500D01*
X184476250Y-24457500D02*
X182236250Y-24457500D01*
X184476250Y-24577500D02*
X182236250Y-24577500D01*
X183356250Y-20407500D02*
X183356250Y-21057500D01*
X183356250Y-25947500D02*
X183356250Y-25297500D01*
X184476250Y-21057500D02*
X184476250Y-25297500D01*
X182236250Y-21057500D02*
X184476250Y-21057500D01*
X182236250Y-25297500D02*
X182236250Y-21057500D01*
X184476250Y-25297500D02*
X182236250Y-25297500D01*
X165426250Y-24697500D02*
X163186250Y-24697500D01*
X165426250Y-24457500D02*
X163186250Y-24457500D01*
X165426250Y-24577500D02*
X163186250Y-24577500D01*
X164306250Y-20407500D02*
X164306250Y-21057500D01*
X164306250Y-25947500D02*
X164306250Y-25297500D01*
X165426250Y-21057500D02*
X165426250Y-25297500D01*
X163186250Y-21057500D02*
X165426250Y-21057500D01*
X163186250Y-25297500D02*
X163186250Y-21057500D01*
X165426250Y-25297500D02*
X163186250Y-25297500D01*
X146376250Y-24697500D02*
X144136250Y-24697500D01*
X146376250Y-24457500D02*
X144136250Y-24457500D01*
X146376250Y-24577500D02*
X144136250Y-24577500D01*
X145256250Y-20407500D02*
X145256250Y-21057500D01*
X145256250Y-25947500D02*
X145256250Y-25297500D01*
X146376250Y-21057500D02*
X146376250Y-25297500D01*
X144136250Y-21057500D02*
X146376250Y-21057500D01*
X144136250Y-25297500D02*
X144136250Y-21057500D01*
X146376250Y-25297500D02*
X144136250Y-25297500D01*
X127326250Y-24697500D02*
X125086250Y-24697500D01*
X127326250Y-24457500D02*
X125086250Y-24457500D01*
X127326250Y-24577500D02*
X125086250Y-24577500D01*
X126206250Y-20407500D02*
X126206250Y-21057500D01*
X126206250Y-25947500D02*
X126206250Y-25297500D01*
X127326250Y-21057500D02*
X127326250Y-25297500D01*
X125086250Y-21057500D02*
X127326250Y-21057500D01*
X125086250Y-25297500D02*
X125086250Y-21057500D01*
X127326250Y-25297500D02*
X125086250Y-25297500D01*
X108276250Y-24697500D02*
X106036250Y-24697500D01*
X108276250Y-24457500D02*
X106036250Y-24457500D01*
X108276250Y-24577500D02*
X106036250Y-24577500D01*
X107156250Y-20407500D02*
X107156250Y-21057500D01*
X107156250Y-25947500D02*
X107156250Y-25297500D01*
X108276250Y-21057500D02*
X108276250Y-25297500D01*
X106036250Y-21057500D02*
X108276250Y-21057500D01*
X106036250Y-25297500D02*
X106036250Y-21057500D01*
X108276250Y-25297500D02*
X106036250Y-25297500D01*
X89226250Y-24697500D02*
X86986250Y-24697500D01*
X89226250Y-24457500D02*
X86986250Y-24457500D01*
X89226250Y-24577500D02*
X86986250Y-24577500D01*
X88106250Y-20407500D02*
X88106250Y-21057500D01*
X88106250Y-25947500D02*
X88106250Y-25297500D01*
X89226250Y-21057500D02*
X89226250Y-25297500D01*
X86986250Y-21057500D02*
X89226250Y-21057500D01*
X86986250Y-25297500D02*
X86986250Y-21057500D01*
X89226250Y-25297500D02*
X86986250Y-25297500D01*
X73351250Y-24697500D02*
X71111250Y-24697500D01*
X73351250Y-24457500D02*
X71111250Y-24457500D01*
X73351250Y-24577500D02*
X71111250Y-24577500D01*
X72231250Y-20407500D02*
X72231250Y-21057500D01*
X72231250Y-25947500D02*
X72231250Y-25297500D01*
X73351250Y-21057500D02*
X73351250Y-25297500D01*
X71111250Y-21057500D02*
X73351250Y-21057500D01*
X71111250Y-25297500D02*
X71111250Y-21057500D01*
X73351250Y-25297500D02*
X71111250Y-25297500D01*
X51126250Y-24697500D02*
X48886250Y-24697500D01*
X51126250Y-24457500D02*
X48886250Y-24457500D01*
X51126250Y-24577500D02*
X48886250Y-24577500D01*
X50006250Y-20407500D02*
X50006250Y-21057500D01*
X50006250Y-25947500D02*
X50006250Y-25297500D01*
X51126250Y-21057500D02*
X51126250Y-25297500D01*
X48886250Y-21057500D02*
X51126250Y-21057500D01*
X48886250Y-25297500D02*
X48886250Y-21057500D01*
X51126250Y-25297500D02*
X48886250Y-25297500D01*
X32076250Y-24697500D02*
X29836250Y-24697500D01*
X32076250Y-24457500D02*
X29836250Y-24457500D01*
X32076250Y-24577500D02*
X29836250Y-24577500D01*
X30956250Y-20407500D02*
X30956250Y-21057500D01*
X30956250Y-25947500D02*
X30956250Y-25297500D01*
X32076250Y-21057500D02*
X32076250Y-25297500D01*
X29836250Y-21057500D02*
X32076250Y-21057500D01*
X29836250Y-25297500D02*
X29836250Y-21057500D01*
X32076250Y-25297500D02*
X29836250Y-25297500D01*
D10*
X93853630Y-60063214D02*
X92853630Y-60063214D01*
X92853630Y-60301309D01*
X92901250Y-60444166D01*
X92996488Y-60539404D01*
X93091726Y-60587023D01*
X93282202Y-60634642D01*
X93425059Y-60634642D01*
X93615535Y-60587023D01*
X93710773Y-60539404D01*
X93806011Y-60444166D01*
X93853630Y-60301309D01*
X93853630Y-60063214D01*
X92948869Y-61015595D02*
X92901250Y-61063214D01*
X92853630Y-61158452D01*
X92853630Y-61396547D01*
X92901250Y-61491785D01*
X92948869Y-61539404D01*
X93044107Y-61587023D01*
X93139345Y-61587023D01*
X93282202Y-61539404D01*
X93853630Y-60967976D01*
X93853630Y-61587023D01*
X92853630Y-62491785D02*
X92853630Y-62015595D01*
X93329821Y-61967976D01*
X93282202Y-62015595D01*
X93234583Y-62110833D01*
X93234583Y-62348928D01*
X93282202Y-62444166D01*
X93329821Y-62491785D01*
X93425059Y-62539404D01*
X93663154Y-62539404D01*
X93758392Y-62491785D01*
X93806011Y-62444166D01*
X93853630Y-62348928D01*
X93853630Y-62110833D01*
X93806011Y-62015595D01*
X93758392Y-61967976D01*
X93533630Y-64825595D02*
X92533630Y-64825595D01*
X93533630Y-65397023D02*
X92962202Y-64968452D01*
X92533630Y-65397023D02*
X93105059Y-64825595D01*
X128778630Y-60063214D02*
X127778630Y-60063214D01*
X127778630Y-60301309D01*
X127826250Y-60444166D01*
X127921488Y-60539404D01*
X128016726Y-60587023D01*
X128207202Y-60634642D01*
X128350059Y-60634642D01*
X128540535Y-60587023D01*
X128635773Y-60539404D01*
X128731011Y-60444166D01*
X128778630Y-60301309D01*
X128778630Y-60063214D01*
X127778630Y-60967976D02*
X127778630Y-61587023D01*
X128159583Y-61253690D01*
X128159583Y-61396547D01*
X128207202Y-61491785D01*
X128254821Y-61539404D01*
X128350059Y-61587023D01*
X128588154Y-61587023D01*
X128683392Y-61539404D01*
X128731011Y-61491785D01*
X128778630Y-61396547D01*
X128778630Y-61110833D01*
X128731011Y-61015595D01*
X128683392Y-60967976D01*
X127778630Y-62206071D02*
X127778630Y-62301309D01*
X127826250Y-62396547D01*
X127873869Y-62444166D01*
X127969107Y-62491785D01*
X128159583Y-62539404D01*
X128397678Y-62539404D01*
X128588154Y-62491785D01*
X128683392Y-62444166D01*
X128731011Y-62396547D01*
X128778630Y-62301309D01*
X128778630Y-62206071D01*
X128731011Y-62110833D01*
X128683392Y-62063214D01*
X128588154Y-62015595D01*
X128397678Y-61967976D01*
X128159583Y-61967976D01*
X127969107Y-62015595D01*
X127873869Y-62063214D01*
X127826250Y-62110833D01*
X127778630Y-62206071D01*
X128458630Y-64825595D02*
X127458630Y-64825595D01*
X128458630Y-65397023D02*
X127887202Y-64968452D01*
X127458630Y-65397023D02*
X128030059Y-64825595D01*
X204978630Y-60063214D02*
X203978630Y-60063214D01*
X203978630Y-60301309D01*
X204026250Y-60444166D01*
X204121488Y-60539404D01*
X204216726Y-60587023D01*
X204407202Y-60634642D01*
X204550059Y-60634642D01*
X204740535Y-60587023D01*
X204835773Y-60539404D01*
X204931011Y-60444166D01*
X204978630Y-60301309D01*
X204978630Y-60063214D01*
X204073869Y-61015595D02*
X204026250Y-61063214D01*
X203978630Y-61158452D01*
X203978630Y-61396547D01*
X204026250Y-61491785D01*
X204073869Y-61539404D01*
X204169107Y-61587023D01*
X204264345Y-61587023D01*
X204407202Y-61539404D01*
X204978630Y-60967976D01*
X204978630Y-61587023D01*
X204978630Y-62063214D02*
X204978630Y-62253690D01*
X204931011Y-62348928D01*
X204883392Y-62396547D01*
X204740535Y-62491785D01*
X204550059Y-62539404D01*
X204169107Y-62539404D01*
X204073869Y-62491785D01*
X204026250Y-62444166D01*
X203978630Y-62348928D01*
X203978630Y-62158452D01*
X204026250Y-62063214D01*
X204073869Y-62015595D01*
X204169107Y-61967976D01*
X204407202Y-61967976D01*
X204502440Y-62015595D01*
X204550059Y-62063214D01*
X204597678Y-62158452D01*
X204597678Y-62348928D01*
X204550059Y-62444166D01*
X204502440Y-62491785D01*
X204407202Y-62539404D01*
X204658630Y-64825595D02*
X203658630Y-64825595D01*
X204658630Y-65397023D02*
X204087202Y-64968452D01*
X203658630Y-65397023D02*
X204230059Y-64825595D01*
X185928630Y-60063214D02*
X184928630Y-60063214D01*
X184928630Y-60301309D01*
X184976250Y-60444166D01*
X185071488Y-60539404D01*
X185166726Y-60587023D01*
X185357202Y-60634642D01*
X185500059Y-60634642D01*
X185690535Y-60587023D01*
X185785773Y-60539404D01*
X185881011Y-60444166D01*
X185928630Y-60301309D01*
X185928630Y-60063214D01*
X185023869Y-61015595D02*
X184976250Y-61063214D01*
X184928630Y-61158452D01*
X184928630Y-61396547D01*
X184976250Y-61491785D01*
X185023869Y-61539404D01*
X185119107Y-61587023D01*
X185214345Y-61587023D01*
X185357202Y-61539404D01*
X185928630Y-60967976D01*
X185928630Y-61587023D01*
X185357202Y-62158452D02*
X185309583Y-62063214D01*
X185261964Y-62015595D01*
X185166726Y-61967976D01*
X185119107Y-61967976D01*
X185023869Y-62015595D01*
X184976250Y-62063214D01*
X184928630Y-62158452D01*
X184928630Y-62348928D01*
X184976250Y-62444166D01*
X185023869Y-62491785D01*
X185119107Y-62539404D01*
X185166726Y-62539404D01*
X185261964Y-62491785D01*
X185309583Y-62444166D01*
X185357202Y-62348928D01*
X185357202Y-62158452D01*
X185404821Y-62063214D01*
X185452440Y-62015595D01*
X185547678Y-61967976D01*
X185738154Y-61967976D01*
X185833392Y-62015595D01*
X185881011Y-62063214D01*
X185928630Y-62158452D01*
X185928630Y-62348928D01*
X185881011Y-62444166D01*
X185833392Y-62491785D01*
X185738154Y-62539404D01*
X185547678Y-62539404D01*
X185452440Y-62491785D01*
X185404821Y-62444166D01*
X185357202Y-62348928D01*
X185608630Y-64825595D02*
X184608630Y-64825595D01*
X185608630Y-65397023D02*
X185037202Y-64968452D01*
X184608630Y-65397023D02*
X185180059Y-64825595D01*
X166878630Y-60063214D02*
X165878630Y-60063214D01*
X165878630Y-60301309D01*
X165926250Y-60444166D01*
X166021488Y-60539404D01*
X166116726Y-60587023D01*
X166307202Y-60634642D01*
X166450059Y-60634642D01*
X166640535Y-60587023D01*
X166735773Y-60539404D01*
X166831011Y-60444166D01*
X166878630Y-60301309D01*
X166878630Y-60063214D01*
X165973869Y-61015595D02*
X165926250Y-61063214D01*
X165878630Y-61158452D01*
X165878630Y-61396547D01*
X165926250Y-61491785D01*
X165973869Y-61539404D01*
X166069107Y-61587023D01*
X166164345Y-61587023D01*
X166307202Y-61539404D01*
X166878630Y-60967976D01*
X166878630Y-61587023D01*
X165878630Y-61920357D02*
X165878630Y-62587023D01*
X166878630Y-62158452D01*
X166558630Y-64825595D02*
X165558630Y-64825595D01*
X166558630Y-65397023D02*
X165987202Y-64968452D01*
X165558630Y-65397023D02*
X166130059Y-64825595D01*
X147828630Y-60063214D02*
X146828630Y-60063214D01*
X146828630Y-60301309D01*
X146876250Y-60444166D01*
X146971488Y-60539404D01*
X147066726Y-60587023D01*
X147257202Y-60634642D01*
X147400059Y-60634642D01*
X147590535Y-60587023D01*
X147685773Y-60539404D01*
X147781011Y-60444166D01*
X147828630Y-60301309D01*
X147828630Y-60063214D01*
X146923869Y-61015595D02*
X146876250Y-61063214D01*
X146828630Y-61158452D01*
X146828630Y-61396547D01*
X146876250Y-61491785D01*
X146923869Y-61539404D01*
X147019107Y-61587023D01*
X147114345Y-61587023D01*
X147257202Y-61539404D01*
X147828630Y-60967976D01*
X147828630Y-61587023D01*
X146828630Y-62444166D02*
X146828630Y-62253690D01*
X146876250Y-62158452D01*
X146923869Y-62110833D01*
X147066726Y-62015595D01*
X147257202Y-61967976D01*
X147638154Y-61967976D01*
X147733392Y-62015595D01*
X147781011Y-62063214D01*
X147828630Y-62158452D01*
X147828630Y-62348928D01*
X147781011Y-62444166D01*
X147733392Y-62491785D01*
X147638154Y-62539404D01*
X147400059Y-62539404D01*
X147304821Y-62491785D01*
X147257202Y-62444166D01*
X147209583Y-62348928D01*
X147209583Y-62158452D01*
X147257202Y-62063214D01*
X147304821Y-62015595D01*
X147400059Y-61967976D01*
X147508630Y-64825595D02*
X146508630Y-64825595D01*
X147508630Y-65397023D02*
X146937202Y-64968452D01*
X146508630Y-65397023D02*
X147080059Y-64825595D01*
X90678630Y-60063214D02*
X89678630Y-60063214D01*
X89678630Y-60301309D01*
X89726250Y-60444166D01*
X89821488Y-60539404D01*
X89916726Y-60587023D01*
X90107202Y-60634642D01*
X90250059Y-60634642D01*
X90440535Y-60587023D01*
X90535773Y-60539404D01*
X90631011Y-60444166D01*
X90678630Y-60301309D01*
X90678630Y-60063214D01*
X89773869Y-61015595D02*
X89726250Y-61063214D01*
X89678630Y-61158452D01*
X89678630Y-61396547D01*
X89726250Y-61491785D01*
X89773869Y-61539404D01*
X89869107Y-61587023D01*
X89964345Y-61587023D01*
X90107202Y-61539404D01*
X90678630Y-60967976D01*
X90678630Y-61587023D01*
X90011964Y-62444166D02*
X90678630Y-62444166D01*
X89631011Y-62206071D02*
X90345297Y-61967976D01*
X90345297Y-62587023D01*
X90358630Y-64825595D02*
X89358630Y-64825595D01*
X90358630Y-65397023D02*
X89787202Y-64968452D01*
X89358630Y-65397023D02*
X89930059Y-64825595D01*
X71628630Y-60063214D02*
X70628630Y-60063214D01*
X70628630Y-60301309D01*
X70676250Y-60444166D01*
X70771488Y-60539404D01*
X70866726Y-60587023D01*
X71057202Y-60634642D01*
X71200059Y-60634642D01*
X71390535Y-60587023D01*
X71485773Y-60539404D01*
X71581011Y-60444166D01*
X71628630Y-60301309D01*
X71628630Y-60063214D01*
X70723869Y-61015595D02*
X70676250Y-61063214D01*
X70628630Y-61158452D01*
X70628630Y-61396547D01*
X70676250Y-61491785D01*
X70723869Y-61539404D01*
X70819107Y-61587023D01*
X70914345Y-61587023D01*
X71057202Y-61539404D01*
X71628630Y-60967976D01*
X71628630Y-61587023D01*
X70628630Y-61920357D02*
X70628630Y-62539404D01*
X71009583Y-62206071D01*
X71009583Y-62348928D01*
X71057202Y-62444166D01*
X71104821Y-62491785D01*
X71200059Y-62539404D01*
X71438154Y-62539404D01*
X71533392Y-62491785D01*
X71581011Y-62444166D01*
X71628630Y-62348928D01*
X71628630Y-62063214D01*
X71581011Y-61967976D01*
X71533392Y-61920357D01*
X71308630Y-64825595D02*
X70308630Y-64825595D01*
X71308630Y-65397023D02*
X70737202Y-64968452D01*
X70308630Y-65397023D02*
X70880059Y-64825595D01*
X52578630Y-60063214D02*
X51578630Y-60063214D01*
X51578630Y-60301309D01*
X51626250Y-60444166D01*
X51721488Y-60539404D01*
X51816726Y-60587023D01*
X52007202Y-60634642D01*
X52150059Y-60634642D01*
X52340535Y-60587023D01*
X52435773Y-60539404D01*
X52531011Y-60444166D01*
X52578630Y-60301309D01*
X52578630Y-60063214D01*
X51673869Y-61015595D02*
X51626250Y-61063214D01*
X51578630Y-61158452D01*
X51578630Y-61396547D01*
X51626250Y-61491785D01*
X51673869Y-61539404D01*
X51769107Y-61587023D01*
X51864345Y-61587023D01*
X52007202Y-61539404D01*
X52578630Y-60967976D01*
X52578630Y-61587023D01*
X51673869Y-61967976D02*
X51626250Y-62015595D01*
X51578630Y-62110833D01*
X51578630Y-62348928D01*
X51626250Y-62444166D01*
X51673869Y-62491785D01*
X51769107Y-62539404D01*
X51864345Y-62539404D01*
X52007202Y-62491785D01*
X52578630Y-61920357D01*
X52578630Y-62539404D01*
X52258630Y-64825595D02*
X51258630Y-64825595D01*
X52258630Y-65397023D02*
X51687202Y-64968452D01*
X51258630Y-65397023D02*
X51830059Y-64825595D01*
X33528630Y-60063214D02*
X32528630Y-60063214D01*
X32528630Y-60301309D01*
X32576250Y-60444166D01*
X32671488Y-60539404D01*
X32766726Y-60587023D01*
X32957202Y-60634642D01*
X33100059Y-60634642D01*
X33290535Y-60587023D01*
X33385773Y-60539404D01*
X33481011Y-60444166D01*
X33528630Y-60301309D01*
X33528630Y-60063214D01*
X32623869Y-61015595D02*
X32576250Y-61063214D01*
X32528630Y-61158452D01*
X32528630Y-61396547D01*
X32576250Y-61491785D01*
X32623869Y-61539404D01*
X32719107Y-61587023D01*
X32814345Y-61587023D01*
X32957202Y-61539404D01*
X33528630Y-60967976D01*
X33528630Y-61587023D01*
X33528630Y-62539404D02*
X33528630Y-61967976D01*
X33528630Y-62253690D02*
X32528630Y-62253690D01*
X32671488Y-62158452D01*
X32766726Y-62063214D01*
X32814345Y-61967976D01*
X33208630Y-64825595D02*
X32208630Y-64825595D01*
X33208630Y-65397023D02*
X32637202Y-64968452D01*
X32208630Y-65397023D02*
X32780059Y-64825595D01*
X204978630Y-41013214D02*
X203978630Y-41013214D01*
X203978630Y-41251309D01*
X204026250Y-41394166D01*
X204121488Y-41489404D01*
X204216726Y-41537023D01*
X204407202Y-41584642D01*
X204550059Y-41584642D01*
X204740535Y-41537023D01*
X204835773Y-41489404D01*
X204931011Y-41394166D01*
X204978630Y-41251309D01*
X204978630Y-41013214D01*
X204073869Y-41965595D02*
X204026250Y-42013214D01*
X203978630Y-42108452D01*
X203978630Y-42346547D01*
X204026250Y-42441785D01*
X204073869Y-42489404D01*
X204169107Y-42537023D01*
X204264345Y-42537023D01*
X204407202Y-42489404D01*
X204978630Y-41917976D01*
X204978630Y-42537023D01*
X203978630Y-43156071D02*
X203978630Y-43251309D01*
X204026250Y-43346547D01*
X204073869Y-43394166D01*
X204169107Y-43441785D01*
X204359583Y-43489404D01*
X204597678Y-43489404D01*
X204788154Y-43441785D01*
X204883392Y-43394166D01*
X204931011Y-43346547D01*
X204978630Y-43251309D01*
X204978630Y-43156071D01*
X204931011Y-43060833D01*
X204883392Y-43013214D01*
X204788154Y-42965595D01*
X204597678Y-42917976D01*
X204359583Y-42917976D01*
X204169107Y-42965595D01*
X204073869Y-43013214D01*
X204026250Y-43060833D01*
X203978630Y-43156071D01*
X204658630Y-45775595D02*
X203658630Y-45775595D01*
X204658630Y-46347023D02*
X204087202Y-45918452D01*
X203658630Y-46347023D02*
X204230059Y-45775595D01*
X185928630Y-41013214D02*
X184928630Y-41013214D01*
X184928630Y-41251309D01*
X184976250Y-41394166D01*
X185071488Y-41489404D01*
X185166726Y-41537023D01*
X185357202Y-41584642D01*
X185500059Y-41584642D01*
X185690535Y-41537023D01*
X185785773Y-41489404D01*
X185881011Y-41394166D01*
X185928630Y-41251309D01*
X185928630Y-41013214D01*
X185928630Y-42537023D02*
X185928630Y-41965595D01*
X185928630Y-42251309D02*
X184928630Y-42251309D01*
X185071488Y-42156071D01*
X185166726Y-42060833D01*
X185214345Y-41965595D01*
X185928630Y-43013214D02*
X185928630Y-43203690D01*
X185881011Y-43298928D01*
X185833392Y-43346547D01*
X185690535Y-43441785D01*
X185500059Y-43489404D01*
X185119107Y-43489404D01*
X185023869Y-43441785D01*
X184976250Y-43394166D01*
X184928630Y-43298928D01*
X184928630Y-43108452D01*
X184976250Y-43013214D01*
X185023869Y-42965595D01*
X185119107Y-42917976D01*
X185357202Y-42917976D01*
X185452440Y-42965595D01*
X185500059Y-43013214D01*
X185547678Y-43108452D01*
X185547678Y-43298928D01*
X185500059Y-43394166D01*
X185452440Y-43441785D01*
X185357202Y-43489404D01*
X185608630Y-45775595D02*
X184608630Y-45775595D01*
X185608630Y-46347023D02*
X185037202Y-45918452D01*
X184608630Y-46347023D02*
X185180059Y-45775595D01*
X166878630Y-41013214D02*
X165878630Y-41013214D01*
X165878630Y-41251309D01*
X165926250Y-41394166D01*
X166021488Y-41489404D01*
X166116726Y-41537023D01*
X166307202Y-41584642D01*
X166450059Y-41584642D01*
X166640535Y-41537023D01*
X166735773Y-41489404D01*
X166831011Y-41394166D01*
X166878630Y-41251309D01*
X166878630Y-41013214D01*
X166878630Y-42537023D02*
X166878630Y-41965595D01*
X166878630Y-42251309D02*
X165878630Y-42251309D01*
X166021488Y-42156071D01*
X166116726Y-42060833D01*
X166164345Y-41965595D01*
X166307202Y-43108452D02*
X166259583Y-43013214D01*
X166211964Y-42965595D01*
X166116726Y-42917976D01*
X166069107Y-42917976D01*
X165973869Y-42965595D01*
X165926250Y-43013214D01*
X165878630Y-43108452D01*
X165878630Y-43298928D01*
X165926250Y-43394166D01*
X165973869Y-43441785D01*
X166069107Y-43489404D01*
X166116726Y-43489404D01*
X166211964Y-43441785D01*
X166259583Y-43394166D01*
X166307202Y-43298928D01*
X166307202Y-43108452D01*
X166354821Y-43013214D01*
X166402440Y-42965595D01*
X166497678Y-42917976D01*
X166688154Y-42917976D01*
X166783392Y-42965595D01*
X166831011Y-43013214D01*
X166878630Y-43108452D01*
X166878630Y-43298928D01*
X166831011Y-43394166D01*
X166783392Y-43441785D01*
X166688154Y-43489404D01*
X166497678Y-43489404D01*
X166402440Y-43441785D01*
X166354821Y-43394166D01*
X166307202Y-43298928D01*
X166558630Y-45775595D02*
X165558630Y-45775595D01*
X166558630Y-46347023D02*
X165987202Y-45918452D01*
X165558630Y-46347023D02*
X166130059Y-45775595D01*
X147828630Y-41013214D02*
X146828630Y-41013214D01*
X146828630Y-41251309D01*
X146876250Y-41394166D01*
X146971488Y-41489404D01*
X147066726Y-41537023D01*
X147257202Y-41584642D01*
X147400059Y-41584642D01*
X147590535Y-41537023D01*
X147685773Y-41489404D01*
X147781011Y-41394166D01*
X147828630Y-41251309D01*
X147828630Y-41013214D01*
X147828630Y-42537023D02*
X147828630Y-41965595D01*
X147828630Y-42251309D02*
X146828630Y-42251309D01*
X146971488Y-42156071D01*
X147066726Y-42060833D01*
X147114345Y-41965595D01*
X146828630Y-42870357D02*
X146828630Y-43537023D01*
X147828630Y-43108452D01*
X147508630Y-45775595D02*
X146508630Y-45775595D01*
X147508630Y-46347023D02*
X146937202Y-45918452D01*
X146508630Y-46347023D02*
X147080059Y-45775595D01*
X128778630Y-41013214D02*
X127778630Y-41013214D01*
X127778630Y-41251309D01*
X127826250Y-41394166D01*
X127921488Y-41489404D01*
X128016726Y-41537023D01*
X128207202Y-41584642D01*
X128350059Y-41584642D01*
X128540535Y-41537023D01*
X128635773Y-41489404D01*
X128731011Y-41394166D01*
X128778630Y-41251309D01*
X128778630Y-41013214D01*
X128778630Y-42537023D02*
X128778630Y-41965595D01*
X128778630Y-42251309D02*
X127778630Y-42251309D01*
X127921488Y-42156071D01*
X128016726Y-42060833D01*
X128064345Y-41965595D01*
X127778630Y-43394166D02*
X127778630Y-43203690D01*
X127826250Y-43108452D01*
X127873869Y-43060833D01*
X128016726Y-42965595D01*
X128207202Y-42917976D01*
X128588154Y-42917976D01*
X128683392Y-42965595D01*
X128731011Y-43013214D01*
X128778630Y-43108452D01*
X128778630Y-43298928D01*
X128731011Y-43394166D01*
X128683392Y-43441785D01*
X128588154Y-43489404D01*
X128350059Y-43489404D01*
X128254821Y-43441785D01*
X128207202Y-43394166D01*
X128159583Y-43298928D01*
X128159583Y-43108452D01*
X128207202Y-43013214D01*
X128254821Y-42965595D01*
X128350059Y-42917976D01*
X128458630Y-45775595D02*
X127458630Y-45775595D01*
X128458630Y-46347023D02*
X127887202Y-45918452D01*
X127458630Y-46347023D02*
X128030059Y-45775595D01*
X109728630Y-41013214D02*
X108728630Y-41013214D01*
X108728630Y-41251309D01*
X108776250Y-41394166D01*
X108871488Y-41489404D01*
X108966726Y-41537023D01*
X109157202Y-41584642D01*
X109300059Y-41584642D01*
X109490535Y-41537023D01*
X109585773Y-41489404D01*
X109681011Y-41394166D01*
X109728630Y-41251309D01*
X109728630Y-41013214D01*
X109728630Y-42537023D02*
X109728630Y-41965595D01*
X109728630Y-42251309D02*
X108728630Y-42251309D01*
X108871488Y-42156071D01*
X108966726Y-42060833D01*
X109014345Y-41965595D01*
X108728630Y-43441785D02*
X108728630Y-42965595D01*
X109204821Y-42917976D01*
X109157202Y-42965595D01*
X109109583Y-43060833D01*
X109109583Y-43298928D01*
X109157202Y-43394166D01*
X109204821Y-43441785D01*
X109300059Y-43489404D01*
X109538154Y-43489404D01*
X109633392Y-43441785D01*
X109681011Y-43394166D01*
X109728630Y-43298928D01*
X109728630Y-43060833D01*
X109681011Y-42965595D01*
X109633392Y-42917976D01*
X109408630Y-45775595D02*
X108408630Y-45775595D01*
X109408630Y-46347023D02*
X108837202Y-45918452D01*
X108408630Y-46347023D02*
X108980059Y-45775595D01*
X90678630Y-41013214D02*
X89678630Y-41013214D01*
X89678630Y-41251309D01*
X89726250Y-41394166D01*
X89821488Y-41489404D01*
X89916726Y-41537023D01*
X90107202Y-41584642D01*
X90250059Y-41584642D01*
X90440535Y-41537023D01*
X90535773Y-41489404D01*
X90631011Y-41394166D01*
X90678630Y-41251309D01*
X90678630Y-41013214D01*
X90678630Y-42537023D02*
X90678630Y-41965595D01*
X90678630Y-42251309D02*
X89678630Y-42251309D01*
X89821488Y-42156071D01*
X89916726Y-42060833D01*
X89964345Y-41965595D01*
X90011964Y-43394166D02*
X90678630Y-43394166D01*
X89631011Y-43156071D02*
X90345297Y-42917976D01*
X90345297Y-43537023D01*
X90358630Y-45775595D02*
X89358630Y-45775595D01*
X90358630Y-46347023D02*
X89787202Y-45918452D01*
X89358630Y-46347023D02*
X89930059Y-45775595D01*
X74803630Y-41013214D02*
X73803630Y-41013214D01*
X73803630Y-41251309D01*
X73851250Y-41394166D01*
X73946488Y-41489404D01*
X74041726Y-41537023D01*
X74232202Y-41584642D01*
X74375059Y-41584642D01*
X74565535Y-41537023D01*
X74660773Y-41489404D01*
X74756011Y-41394166D01*
X74803630Y-41251309D01*
X74803630Y-41013214D01*
X74803630Y-42537023D02*
X74803630Y-41965595D01*
X74803630Y-42251309D02*
X73803630Y-42251309D01*
X73946488Y-42156071D01*
X74041726Y-42060833D01*
X74089345Y-41965595D01*
X73803630Y-42870357D02*
X73803630Y-43489404D01*
X74184583Y-43156071D01*
X74184583Y-43298928D01*
X74232202Y-43394166D01*
X74279821Y-43441785D01*
X74375059Y-43489404D01*
X74613154Y-43489404D01*
X74708392Y-43441785D01*
X74756011Y-43394166D01*
X74803630Y-43298928D01*
X74803630Y-43013214D01*
X74756011Y-42917976D01*
X74708392Y-42870357D01*
X74483630Y-45775595D02*
X73483630Y-45775595D01*
X74483630Y-46347023D02*
X73912202Y-45918452D01*
X73483630Y-46347023D02*
X74055059Y-45775595D01*
X52578630Y-41013214D02*
X51578630Y-41013214D01*
X51578630Y-41251309D01*
X51626250Y-41394166D01*
X51721488Y-41489404D01*
X51816726Y-41537023D01*
X52007202Y-41584642D01*
X52150059Y-41584642D01*
X52340535Y-41537023D01*
X52435773Y-41489404D01*
X52531011Y-41394166D01*
X52578630Y-41251309D01*
X52578630Y-41013214D01*
X52578630Y-42537023D02*
X52578630Y-41965595D01*
X52578630Y-42251309D02*
X51578630Y-42251309D01*
X51721488Y-42156071D01*
X51816726Y-42060833D01*
X51864345Y-41965595D01*
X51673869Y-42917976D02*
X51626250Y-42965595D01*
X51578630Y-43060833D01*
X51578630Y-43298928D01*
X51626250Y-43394166D01*
X51673869Y-43441785D01*
X51769107Y-43489404D01*
X51864345Y-43489404D01*
X52007202Y-43441785D01*
X52578630Y-42870357D01*
X52578630Y-43489404D01*
X52258630Y-45775595D02*
X51258630Y-45775595D01*
X52258630Y-46347023D02*
X51687202Y-45918452D01*
X51258630Y-46347023D02*
X51830059Y-45775595D01*
X33528630Y-41013214D02*
X32528630Y-41013214D01*
X32528630Y-41251309D01*
X32576250Y-41394166D01*
X32671488Y-41489404D01*
X32766726Y-41537023D01*
X32957202Y-41584642D01*
X33100059Y-41584642D01*
X33290535Y-41537023D01*
X33385773Y-41489404D01*
X33481011Y-41394166D01*
X33528630Y-41251309D01*
X33528630Y-41013214D01*
X33528630Y-42537023D02*
X33528630Y-41965595D01*
X33528630Y-42251309D02*
X32528630Y-42251309D01*
X32671488Y-42156071D01*
X32766726Y-42060833D01*
X32814345Y-41965595D01*
X33528630Y-43489404D02*
X33528630Y-42917976D01*
X33528630Y-43203690D02*
X32528630Y-43203690D01*
X32671488Y-43108452D01*
X32766726Y-43013214D01*
X32814345Y-42917976D01*
X33208630Y-45775595D02*
X32208630Y-45775595D01*
X33208630Y-46347023D02*
X32637202Y-45918452D01*
X32208630Y-46347023D02*
X32780059Y-45775595D01*
X204978630Y-21963214D02*
X203978630Y-21963214D01*
X203978630Y-22201309D01*
X204026250Y-22344166D01*
X204121488Y-22439404D01*
X204216726Y-22487023D01*
X204407202Y-22534642D01*
X204550059Y-22534642D01*
X204740535Y-22487023D01*
X204835773Y-22439404D01*
X204931011Y-22344166D01*
X204978630Y-22201309D01*
X204978630Y-21963214D01*
X204978630Y-23487023D02*
X204978630Y-22915595D01*
X204978630Y-23201309D02*
X203978630Y-23201309D01*
X204121488Y-23106071D01*
X204216726Y-23010833D01*
X204264345Y-22915595D01*
X203978630Y-24106071D02*
X203978630Y-24201309D01*
X204026250Y-24296547D01*
X204073869Y-24344166D01*
X204169107Y-24391785D01*
X204359583Y-24439404D01*
X204597678Y-24439404D01*
X204788154Y-24391785D01*
X204883392Y-24344166D01*
X204931011Y-24296547D01*
X204978630Y-24201309D01*
X204978630Y-24106071D01*
X204931011Y-24010833D01*
X204883392Y-23963214D01*
X204788154Y-23915595D01*
X204597678Y-23867976D01*
X204359583Y-23867976D01*
X204169107Y-23915595D01*
X204073869Y-23963214D01*
X204026250Y-24010833D01*
X203978630Y-24106071D01*
X204658630Y-26725595D02*
X203658630Y-26725595D01*
X204658630Y-27297023D02*
X204087202Y-26868452D01*
X203658630Y-27297023D02*
X204230059Y-26725595D01*
X185928630Y-22439404D02*
X184928630Y-22439404D01*
X184928630Y-22677500D01*
X184976250Y-22820357D01*
X185071488Y-22915595D01*
X185166726Y-22963214D01*
X185357202Y-23010833D01*
X185500059Y-23010833D01*
X185690535Y-22963214D01*
X185785773Y-22915595D01*
X185881011Y-22820357D01*
X185928630Y-22677500D01*
X185928630Y-22439404D01*
X185928630Y-23487023D02*
X185928630Y-23677500D01*
X185881011Y-23772738D01*
X185833392Y-23820357D01*
X185690535Y-23915595D01*
X185500059Y-23963214D01*
X185119107Y-23963214D01*
X185023869Y-23915595D01*
X184976250Y-23867976D01*
X184928630Y-23772738D01*
X184928630Y-23582261D01*
X184976250Y-23487023D01*
X185023869Y-23439404D01*
X185119107Y-23391785D01*
X185357202Y-23391785D01*
X185452440Y-23439404D01*
X185500059Y-23487023D01*
X185547678Y-23582261D01*
X185547678Y-23772738D01*
X185500059Y-23867976D01*
X185452440Y-23915595D01*
X185357202Y-23963214D01*
X185608630Y-26725595D02*
X184608630Y-26725595D01*
X185608630Y-27297023D02*
X185037202Y-26868452D01*
X184608630Y-27297023D02*
X185180059Y-26725595D01*
X166878630Y-22439404D02*
X165878630Y-22439404D01*
X165878630Y-22677500D01*
X165926250Y-22820357D01*
X166021488Y-22915595D01*
X166116726Y-22963214D01*
X166307202Y-23010833D01*
X166450059Y-23010833D01*
X166640535Y-22963214D01*
X166735773Y-22915595D01*
X166831011Y-22820357D01*
X166878630Y-22677500D01*
X166878630Y-22439404D01*
X166307202Y-23582261D02*
X166259583Y-23487023D01*
X166211964Y-23439404D01*
X166116726Y-23391785D01*
X166069107Y-23391785D01*
X165973869Y-23439404D01*
X165926250Y-23487023D01*
X165878630Y-23582261D01*
X165878630Y-23772738D01*
X165926250Y-23867976D01*
X165973869Y-23915595D01*
X166069107Y-23963214D01*
X166116726Y-23963214D01*
X166211964Y-23915595D01*
X166259583Y-23867976D01*
X166307202Y-23772738D01*
X166307202Y-23582261D01*
X166354821Y-23487023D01*
X166402440Y-23439404D01*
X166497678Y-23391785D01*
X166688154Y-23391785D01*
X166783392Y-23439404D01*
X166831011Y-23487023D01*
X166878630Y-23582261D01*
X166878630Y-23772738D01*
X166831011Y-23867976D01*
X166783392Y-23915595D01*
X166688154Y-23963214D01*
X166497678Y-23963214D01*
X166402440Y-23915595D01*
X166354821Y-23867976D01*
X166307202Y-23772738D01*
X166558630Y-26725595D02*
X165558630Y-26725595D01*
X166558630Y-27297023D02*
X165987202Y-26868452D01*
X165558630Y-27297023D02*
X166130059Y-26725595D01*
X147828630Y-22439404D02*
X146828630Y-22439404D01*
X146828630Y-22677500D01*
X146876250Y-22820357D01*
X146971488Y-22915595D01*
X147066726Y-22963214D01*
X147257202Y-23010833D01*
X147400059Y-23010833D01*
X147590535Y-22963214D01*
X147685773Y-22915595D01*
X147781011Y-22820357D01*
X147828630Y-22677500D01*
X147828630Y-22439404D01*
X146828630Y-23344166D02*
X146828630Y-24010833D01*
X147828630Y-23582261D01*
X147508630Y-26725595D02*
X146508630Y-26725595D01*
X147508630Y-27297023D02*
X146937202Y-26868452D01*
X146508630Y-27297023D02*
X147080059Y-26725595D01*
X128778630Y-22439404D02*
X127778630Y-22439404D01*
X127778630Y-22677500D01*
X127826250Y-22820357D01*
X127921488Y-22915595D01*
X128016726Y-22963214D01*
X128207202Y-23010833D01*
X128350059Y-23010833D01*
X128540535Y-22963214D01*
X128635773Y-22915595D01*
X128731011Y-22820357D01*
X128778630Y-22677500D01*
X128778630Y-22439404D01*
X127778630Y-23867976D02*
X127778630Y-23677500D01*
X127826250Y-23582261D01*
X127873869Y-23534642D01*
X128016726Y-23439404D01*
X128207202Y-23391785D01*
X128588154Y-23391785D01*
X128683392Y-23439404D01*
X128731011Y-23487023D01*
X128778630Y-23582261D01*
X128778630Y-23772738D01*
X128731011Y-23867976D01*
X128683392Y-23915595D01*
X128588154Y-23963214D01*
X128350059Y-23963214D01*
X128254821Y-23915595D01*
X128207202Y-23867976D01*
X128159583Y-23772738D01*
X128159583Y-23582261D01*
X128207202Y-23487023D01*
X128254821Y-23439404D01*
X128350059Y-23391785D01*
X128458630Y-26725595D02*
X127458630Y-26725595D01*
X128458630Y-27297023D02*
X127887202Y-26868452D01*
X127458630Y-27297023D02*
X128030059Y-26725595D01*
X109728630Y-22439404D02*
X108728630Y-22439404D01*
X108728630Y-22677500D01*
X108776250Y-22820357D01*
X108871488Y-22915595D01*
X108966726Y-22963214D01*
X109157202Y-23010833D01*
X109300059Y-23010833D01*
X109490535Y-22963214D01*
X109585773Y-22915595D01*
X109681011Y-22820357D01*
X109728630Y-22677500D01*
X109728630Y-22439404D01*
X108728630Y-23915595D02*
X108728630Y-23439404D01*
X109204821Y-23391785D01*
X109157202Y-23439404D01*
X109109583Y-23534642D01*
X109109583Y-23772738D01*
X109157202Y-23867976D01*
X109204821Y-23915595D01*
X109300059Y-23963214D01*
X109538154Y-23963214D01*
X109633392Y-23915595D01*
X109681011Y-23867976D01*
X109728630Y-23772738D01*
X109728630Y-23534642D01*
X109681011Y-23439404D01*
X109633392Y-23391785D01*
X109408630Y-26725595D02*
X108408630Y-26725595D01*
X109408630Y-27297023D02*
X108837202Y-26868452D01*
X108408630Y-27297023D02*
X108980059Y-26725595D01*
X90678630Y-22439404D02*
X89678630Y-22439404D01*
X89678630Y-22677500D01*
X89726250Y-22820357D01*
X89821488Y-22915595D01*
X89916726Y-22963214D01*
X90107202Y-23010833D01*
X90250059Y-23010833D01*
X90440535Y-22963214D01*
X90535773Y-22915595D01*
X90631011Y-22820357D01*
X90678630Y-22677500D01*
X90678630Y-22439404D01*
X90011964Y-23867976D02*
X90678630Y-23867976D01*
X89631011Y-23629880D02*
X90345297Y-23391785D01*
X90345297Y-24010833D01*
X90358630Y-26725595D02*
X89358630Y-26725595D01*
X90358630Y-27297023D02*
X89787202Y-26868452D01*
X89358630Y-27297023D02*
X89930059Y-26725595D01*
X74803630Y-22439404D02*
X73803630Y-22439404D01*
X73803630Y-22677500D01*
X73851250Y-22820357D01*
X73946488Y-22915595D01*
X74041726Y-22963214D01*
X74232202Y-23010833D01*
X74375059Y-23010833D01*
X74565535Y-22963214D01*
X74660773Y-22915595D01*
X74756011Y-22820357D01*
X74803630Y-22677500D01*
X74803630Y-22439404D01*
X73803630Y-23344166D02*
X73803630Y-23963214D01*
X74184583Y-23629880D01*
X74184583Y-23772738D01*
X74232202Y-23867976D01*
X74279821Y-23915595D01*
X74375059Y-23963214D01*
X74613154Y-23963214D01*
X74708392Y-23915595D01*
X74756011Y-23867976D01*
X74803630Y-23772738D01*
X74803630Y-23487023D01*
X74756011Y-23391785D01*
X74708392Y-23344166D01*
X74483630Y-26725595D02*
X73483630Y-26725595D01*
X74483630Y-27297023D02*
X73912202Y-26868452D01*
X73483630Y-27297023D02*
X74055059Y-26725595D01*
X52578630Y-22439404D02*
X51578630Y-22439404D01*
X51578630Y-22677500D01*
X51626250Y-22820357D01*
X51721488Y-22915595D01*
X51816726Y-22963214D01*
X52007202Y-23010833D01*
X52150059Y-23010833D01*
X52340535Y-22963214D01*
X52435773Y-22915595D01*
X52531011Y-22820357D01*
X52578630Y-22677500D01*
X52578630Y-22439404D01*
X51673869Y-23391785D02*
X51626250Y-23439404D01*
X51578630Y-23534642D01*
X51578630Y-23772738D01*
X51626250Y-23867976D01*
X51673869Y-23915595D01*
X51769107Y-23963214D01*
X51864345Y-23963214D01*
X52007202Y-23915595D01*
X52578630Y-23344166D01*
X52578630Y-23963214D01*
X52258630Y-26725595D02*
X51258630Y-26725595D01*
X52258630Y-27297023D02*
X51687202Y-26868452D01*
X51258630Y-27297023D02*
X51830059Y-26725595D01*
X33528630Y-22439404D02*
X32528630Y-22439404D01*
X32528630Y-22677500D01*
X32576250Y-22820357D01*
X32671488Y-22915595D01*
X32766726Y-22963214D01*
X32957202Y-23010833D01*
X33100059Y-23010833D01*
X33290535Y-22963214D01*
X33385773Y-22915595D01*
X33481011Y-22820357D01*
X33528630Y-22677500D01*
X33528630Y-22439404D01*
X33528630Y-23963214D02*
X33528630Y-23391785D01*
X33528630Y-23677500D02*
X32528630Y-23677500D01*
X32671488Y-23582261D01*
X32766726Y-23487023D01*
X32814345Y-23391785D01*
X33208630Y-26725595D02*
X32208630Y-26725595D01*
X33208630Y-27297023D02*
X32637202Y-26868452D01*
X32208630Y-27297023D02*
X32780059Y-26725595D01*
M02*
