M48
; DRILL file {KiCad (5.1.4)-1} date 11/5/2020 7:45:37 PM
; FORMAT={-:-/ absolute / inch / decimal}
; #@! TF.CreationDate,2020-11-05T19:45:37-08:00
; #@! TF.GenerationSoftware,Kicad,Pcbnew,(5.1.4)-1
; #@! TF.FileFunction,Plated,1,2,PTH
FMAT,2
INCH
T1C0.0157
T2C0.0300
T3C0.0315
T4C0.0430
T5C0.0579
%
G90
G05
T1
X2.4062Y-1.2812
X4.1562Y-1.3438
T3
X1.2188Y-0.7625
X1.2188Y-1.0625
X4.9688Y-0.7625
X4.9688Y-1.0625
X6.4688Y-0.7625
X6.4688Y-1.0625
X7.2188Y-0.7625
X7.2188Y-1.0625
X5.7188Y-0.7625
X5.7188Y-1.0625
X2.8438Y-0.7625
X2.8438Y-1.0625
X3.4688Y-0.7625
X3.4688Y-1.0625
X1.9688Y-0.7625
X1.9688Y-1.0625
X4.2188Y-0.7625
X4.2188Y-1.0625
X4.9688Y-2.2625
X4.9688Y-2.5625
X3.5938Y-2.2625
X3.5938Y-2.5625
X1.2188Y-2.2625
X1.2188Y-2.5625
X6.4688Y-1.5125
X6.4688Y-1.8125
X4.9688Y-1.5125
X4.9688Y-1.8125
X7.2188Y-1.5125
X7.2188Y-1.8125
X2.8438Y-1.5125
X2.8438Y-1.8125
X1.9688Y-2.2625
X1.9688Y-2.5625
X7.9688Y-1.5125
X7.9688Y-1.8125
X3.4688Y-1.5125
X3.4688Y-1.8125
X1.9688Y-1.5125
X1.9688Y-1.8125
X1.2188Y-1.5125
X1.2188Y-1.8125
X7.9688Y-0.7625
X7.9688Y-1.0625
X5.7188Y-2.2625
X5.7188Y-2.5625
X2.7188Y-2.2625
X2.7188Y-2.5625
X5.7188Y-1.5125
X5.7188Y-1.8125
X4.2188Y-1.5125
X4.2188Y-1.8125
X3.4688Y-2.2625
X3.4688Y-2.5625
X7.9688Y-2.2625
X7.9688Y-2.5625
X7.2188Y-2.2625
X7.2188Y-2.5625
X6.4688Y-2.2625
X6.4688Y-2.5625
T4
X2.1062Y-0.7312
X2.1062Y-0.8312
X2.1062Y-0.9313
X2.1062Y-1.0312
X2.1062Y-1.1312
X2.1062Y-1.2312
X2.1062Y-1.3313
X2.1062Y-1.4312
X2.1062Y-1.5312
X2.1062Y-1.6312
X2.1062Y-1.7312
X2.1062Y-1.8313
X2.7062Y-0.7312
X2.7062Y-0.8312
X2.7062Y-0.9313
X2.7062Y-1.0312
X2.7062Y-1.1312
X2.7062Y-1.2312
X2.7062Y-1.3313
X2.7062Y-1.4312
X2.7062Y-1.5312
X2.7062Y-1.6312
X2.7062Y-1.7312
X2.7062Y-1.8313
T5
X3.0063Y-2.3062
X3.2563Y-2.2062
X4.5062Y-2.3062
X4.7562Y-2.2062
X3.7563Y-2.3062
X4.0062Y-2.2062
X4.1312Y-2.3062
X4.3812Y-2.2062
X6.7562Y-2.3062
X7.0062Y-2.2062
X6.0062Y-2.3062
X6.2562Y-2.2062
X2.2563Y-2.3062
X2.5063Y-2.2062
X1.5062Y-2.3062
X1.7562Y-2.2062
X7.5062Y-2.3062
X7.7562Y-2.2062
X0.7562Y-2.3062
X1.0062Y-2.2062
X5.2562Y-2.3062
X5.5062Y-2.2062
X7.5062Y-1.5562
X7.7562Y-1.4563
X6.7562Y-1.5562
X7.0062Y-1.4563
X1.5062Y-1.5562
X1.7562Y-1.4563
X0.7562Y-1.5562
X1.0062Y-1.4563
X6.7562Y-0.8063
X7.0062Y-0.7062
X5.2562Y-0.8063
X5.5062Y-0.7062
X3.7563Y-0.8063
X4.0062Y-0.7062
X7.5062Y-0.8063
X7.7562Y-0.7062
X3.0063Y-0.8063
X3.2563Y-0.7062
X5.2562Y-1.5562
X5.5062Y-1.4563
X4.5062Y-1.5562
X4.7562Y-1.4563
X6.0062Y-1.5562
X6.2562Y-1.4563
X6.0062Y-0.8063
X6.2562Y-0.7062
X4.5062Y-0.8063
X4.7562Y-0.7062
X2.2563Y-0.8063
X2.5063Y-0.7062
X3.0063Y-1.5562
X3.2563Y-1.4563
X1.5062Y-0.8063
X1.7562Y-0.7062
X0.7562Y-0.8063
X1.0062Y-0.7062
X3.7563Y-1.5562
X4.0062Y-1.4563
X2.2563Y-1.5562
X2.5063Y-1.4563
T2
G00X2.8194Y-0.5694
M15
G01X2.8194Y-0.6181
M16
G05
G00X3.0556Y-0.5694
M15
G01X3.0556Y-0.6181
M16
G05
T0
M30
